<svg xmlns="http://www.w3.org/2000/svg" xmlns:xlink="http://www.w3.org/1999/xlink" viewBox="0 0 427.1 485.65"><defs><style>.cls-1{fill:#243f4e;}.cls-2{fill:#e8aeb2;}.cls-3{fill:#dfa64f;}.cls-4{fill:#fff;}.cls-5{fill:#264251;}.cls-6{fill:#c74136;}.cls-7{fill:#f1d7dc;}.cls-8{fill:#412629;}.cls-9{clip-path:url(#clip-path);}.cls-10{fill:#1c2f38;}.cls-11{fill:#335360;}.cls-12{clip-path:url(#clip-path-2);}.cls-13{fill:#d5a1a6;}.cls-14{fill:#2e4952;}.cls-15{fill:#b33b34;}.cls-16{clip-path:url(#clip-path-3);}.cls-17{fill:#bc3f38;}.cls-18{clip-path:url(#clip-path-4);}.cls-19{fill:#dd8989;opacity:0.44;}.cls-20{fill:#f1d7da;}.cls-21{clip-path:url(#clip-path-5);}.cls-22{clip-path:url(#clip-path-6);}.cls-23{clip-path:url(#clip-path-7);}.cls-24{fill:#321d21;}.cls-25{fill:#d36177;}.cls-26{clip-path:url(#clip-path-8);}.cls-27,.cls-28{fill:#713d44;}.cls-28{opacity:0.28;}.cls-29{clip-path:url(#clip-path-9);}.cls-30{fill:#222221;}.cls-31{fill:#d47580;}.cls-32{clip-path:url(#clip-path-10);}.cls-33{fill:#dedede;}.cls-34{clip-path:url(#clip-path-11);}.cls-35{fill:#a12f29;}.cls-36{fill:#c9d0d5;}.cls-37{clip-path:url(#clip-path-12);}.cls-38{clip-path:url(#clip-path-13);}.cls-39{fill:#1f353f;}.cls-40{fill:#020202;}</style><clipPath id="clip-path"><path class="cls-1" d="M280.59,114.58c-7,3.33-29.94-4.8-29.94-4.8,11.83-.37,15.53-8.5,15.53-8.5-17,4.25-27.57-3.61-43.12-9.62,6-2.92,21.31-2.21,21.31-2.21-23.29-14-50.27-7.4-50.27-7.4l4.07-12.93s-3.33,7.39-21.07,12.2-17.74,20.32-17.74,20.32.16,7.55.37,7.4c.13,13.16,4.1,1.34,4.06.74,0,0,12.2,35.11,45.1,47.31s56.18-19.22,56.18-19.22l-25.51-10C256.57,132,280.59,114.58,280.59,114.58Z"/></clipPath><clipPath id="clip-path-2"><polygon class="cls-2" points="149.01 226.21 104.65 297.91 117.22 303.82 153.81 231.01 149.01 226.21"/></clipPath><clipPath id="clip-path-3"><path class="cls-6" d="M210.36,193.31l11.83-16.26s24.77-1.11,30.68,12.56,23.29,73.19,14.41,78-38.44,3-38.44,3Z"/></clipPath><clipPath id="clip-path-4"><path class="cls-2" d="M235.13,134.91c-3.7-11.83-15.43.19-15.53-1.48-1-.42-10.28-3.08-9.24-17.37.82-11.13-1.56-17.47-7.42-19.62-9-1.65-20.81,1.12-32.12,6.31-22.55,10.35.55,88.53.55,88.53l48.23-5-.73-36.6C232.54,157.83,238.33,145.15,235.13,134.91Z"/></clipPath><clipPath id="clip-path-5"><ellipse class="cls-7" cx="161.94" cy="120.68" rx="11.83" ry="14.97"/></clipPath><clipPath id="clip-path-6"><ellipse class="cls-7" cx="192.99" cy="114.4" rx="12.57" ry="15.91"/></clipPath><clipPath id="clip-path-7"><path class="cls-8" d="M169.71,142.3l34-8.5s12.2,39.55-7,42.88S169.71,142.3,169.71,142.3Z"/></clipPath><clipPath id="clip-path-8"><path class="cls-3" d="M169,185.92s-6.29,59.88-3,105l85.75-3L220.34,184.07Z"/></clipPath><clipPath id="clip-path-9"><polygon class="cls-3" points="167.12 189.61 141.62 226.94 165.09 240.44 168.6 192.2 167.12 189.61"/></clipPath><clipPath id="clip-path-10"><path class="cls-4" d="M325.31,7.39,224,51.75,230,61,332,26.24ZM324,21.81c-.71,0-1.29-1-1.29-2.22s.58-2.22,1.29-2.22,1.29,1,1.29,2.22S324.74,21.81,324,21.81Z"/></clipPath><clipPath id="clip-path-11"><polygon class="cls-3" points="226.07 219.74 250.28 170.02 218.5 167.07 219.6 186.29 226.07 219.74"/></clipPath><clipPath id="clip-path-12"><path class="cls-4" d="M169,349.29s-.37-43.62,76.88-69.49S334.92,238,334.92,238l10,37.33Z"/></clipPath><clipPath id="clip-path-13"><path class="cls-5" d="M21.05,285.58l124.26,34.14s-2.22,9.61,15.53,7.76S176,316,176,316l174.46-65,72.44,143.78L247,412.86s2.21,5.18-12.94,6.29-18.11-10.72-18.11-10.72l-92.78-16.27L21,287.5Z"/></clipPath></defs><title>Recurso 5</title><g id="Capa_2" data-name="Capa 2"><g id="OBJECTS"><path class="cls-1" d="M280.59,114.58c-7,3.33-29.94-4.8-29.94-4.8,11.83-.37,15.53-8.5,15.53-8.5-17,4.25-27.57-3.61-43.12-9.62,6-2.92,21.31-2.21,21.31-2.21-23.29-14-50.27-7.4-50.27-7.4l4.07-12.93s-3.33,7.39-21.07,12.2-17.74,20.32-17.74,20.32.16,7.55.37,7.4c.13,13.16,4.1,1.34,4.06.74,0,0,12.2,35.11,45.1,47.31s56.18-19.22,56.18-19.22l-25.51-10C256.57,132,280.59,114.58,280.59,114.58Z"/><g class="cls-9"><path class="cls-10" d="M280.59,114.58c-15.06,4.1-27.12,5.36-36.75,4.91a72,72,0,0,0,7.91-2.8c1.32-.55.23-2.81-1-2.45-5.49,1.58-10.95,3.06-16.52,4.14a48.07,48.07,0,0,1-11.38-3.63A64.66,64.66,0,0,0,237.69,112c.46-.14,2.18-1.7,1.08-1.38a63.29,63.29,0,0,1-19,2.53,31.09,31.09,0,0,1-11.13-10.54c4.63.62,9.23,1.44,13.82,2.49,7,1.61,14,3.19,21.09,1.55.27-.06-1.34-.32-1.77-.22-8.75,2-18.4-2.16-27-3.61q-3.27-.55-6.55-1a15.53,15.53,0,0,1-1-2.06s-.58.63-1.55,1.76c-3.73-.41-7.47-.68-11.22-.76-.92,0-1.88.35-.35.44q5.55.32,11,.93c-1.4,1.66-3.37,4.1-5.53,7.09l-3.5-1.13c-.54-.17-2.44,1.29-1.91,1.58a33.5,33.5,0,0,0,3.84,1.77c-11.8,17.18-26,48.07,16.94,56C275.42,178.52,343.06,97.58,280.59,114.58Z"/><path class="cls-10" d="M227.71,96.7c-13.65-4.21-29.83-2.15-42.15,5-.28.17.8,2,1.18,1.78A64.32,64.32,0,0,1,207,97.25a65.44,65.44,0,0,1,21.83,1.4C229,98.69,228.25,96.87,227.71,96.7Z"/><path class="cls-11" d="M161.94,105.71c-1-.37-.37-15.66,11.19-22,17.18-9.43,18.29-9.43,18.29-9.43s-34.93,2.5-34.1,30.5l3.89,3.6.73-2.68"/><path class="cls-11" d="M197.05,67.6c-.25,6-5.31,9.71-9.62,13.1a33.07,33.07,0,0,0-5.68,5.41A25.76,25.76,0,0,0,178,92.8,22.58,22.58,0,0,0,176.3,101c0,.21.32,0,.33-.16A26.73,26.73,0,0,1,182.29,86c3.52-4.33,8.74-6.83,12.22-11.18a12.14,12.14,0,0,0,3-7.4C197.49,67.11,197.06,67.4,197.05,67.6Z"/><path class="cls-11" d="M220.74,74.3c-1.48.37-2.93.94-4.38,1.42l-4.51,1.5c-2.7.9-5.42,1.78-8.07,2.81-4.8,1.87-9.49,4.36-12.91,8.29a15.83,15.83,0,0,0-3.75,6.84c0,.15.18.06.21,0a21,21,0,0,1,3.46-6.22,24.32,24.32,0,0,1,5.52-4.8c4.64-3,10-4.63,15.17-6.36l4.64-1.54c1.52-.51,3.09-.95,4.57-1.56C220.82,74.59,221,74.24,220.74,74.3Z"/></g><polygon class="cls-2" points="149.01 226.21 104.65 297.91 117.22 303.82 153.81 231.01 149.01 226.21"/><g class="cls-12"><path class="cls-13" d="M104.65,283.59s18.3,2.22,25.23,10S108.81,298,108.81,298l-5-11.09Z"/><polygon class="cls-13" points="141.25 228.98 154 236.19 156.49 230.64 143.66 222.46 141.25 228.98"/></g><path class="cls-14" d="M107.24,320.83s22.55-28.46,58.77-29.94,85.75-3,85.75-3L239.56,333S137.92,333,107.24,320.83Z"/><path class="cls-15" d="M223.3,181.85l11.46-5.17s26.61,0,29.94,27.72-.74,24.76-.74,24.76Z"/><path class="cls-6" d="M210.36,193.31l11.83-16.26s24.77-1.11,30.68,12.56,23.29,73.19,14.41,78-38.44,3-38.44,3Z"/><g class="cls-16"><path class="cls-17" d="M242.89,181.85c-.37,1.11-8.13,30.31-8.13,30.31l14.41,51.75-14.41,3.32-17-61.35,25.13-24"/></g><path class="cls-13" d="M163.42,142.67s-11.09-7.76-10.72,2.59,5.55,15.89,14.42,15.15S163.42,142.67,163.42,142.67Z"/><path class="cls-2" d="M235.13,134.91c-3.7-11.83-15.43.19-15.53-1.48-1-.42-10.28-3.08-9.24-17.37.82-11.13-1.56-17.47-7.42-19.62-9-1.65-20.81,1.12-32.12,6.31-22.55,10.35.55,88.53.55,88.53l48.23-5-.73-36.6C232.54,157.83,238.33,145.15,235.13,134.91Z"/><g class="cls-18"><polyline class="cls-13" points="216.37 124.47 221.08 158.29 226.35 156.63 222.47 123.64 216.37 124.47"/><path class="cls-19" d="M168.14,138.88c0,2.15-1,3.88-2.22,3.88s-2.22-1.73-2.22-3.88,1-3.88,2.22-3.88S168.14,136.74,168.14,138.88Z"/><path class="cls-19" d="M209.65,130.26c.56,2.35-.07,4.51-1.41,4.83s-2.88-1.32-3.44-3.66.06-4.51,1.4-4.83S209.09,127.92,209.65,130.26Z"/><path class="cls-20" d="M171.74,186.84c-.28-.83-13.58-51.84-9.7-77.06,0,0-5.27,40.75,7.76,77.06h1.94Z"/></g><line class="cls-4" x1="205.56" y1="119.02" x2="228.66" y2="132.14"/><ellipse class="cls-7" cx="161.94" cy="120.68" rx="11.83" ry="14.97"/><g class="cls-21"><path class="cls-4" d="M160.37,99.24c-.27,1.67,11.37,3.61,11.37,3.61l4.16,6.09s-26.62,6.66-26.62,24.68c0,0-6.37-23.29-1.66-26.62S160.37,99.24,160.37,99.24Z"/></g><ellipse class="cls-7" cx="192.99" cy="114.4" rx="12.57" ry="15.91"/><g class="cls-22"><path class="cls-4" d="M207.22,99.8S190.87,97.86,179,126.41l-4.07-25.87,21.44-10.35Z"/></g><path class="cls-8" d="M169.71,142.3l34-8.5s12.2,39.55-7,42.88S169.71,142.3,169.71,142.3Z"/><g class="cls-23"><path class="cls-24" d="M185.6,135.46s20,18.67,2.22,41.59c0,0,14.23,5.91,19.59-1.11s-.19-44.73-.19-44.73Z"/><path class="cls-4" d="M175.44,138.79s1.1,7.21,7.76,6.1S207,136.57,207,136.57l-1.3-5.54Z"/><path class="cls-25" d="M209.62,163s-16.26,3.14-15.52,13.86S212.58,170.39,209.62,163Z"/></g><path class="cls-3" d="M169,185.92s-6.29,59.88-3,105l85.75-3L220.34,184.07Z"/><g class="cls-26"><path class="cls-27" d="M211.3,185.06q-10.77,1.47-21.57,2.86c-7.2.93-14.5,1.55-21.64,2.86-.93.17-2.75,1.79-.77,1.69,7.14-.38,14.3-1.56,21.4-2.46q11.06-1.41,22.11-2.93C212.65,186.83,213.82,184.55,211.3,185.06Z"/><path class="cls-27" d="M209.32,192.85c-3.74.2-7.52,1-11.23,1.52s-7.47,1-11.21,1.39c-3.56.41-7.13.78-10.7,1.13-3.27.31-7.73,0-10.7,1.51-.9.46,0,1.8.69,2,3.33.81,7.08.1,10.46-.19,3.76-.31,7.51-.7,11.25-1.11s7.49-.88,11.22-1.37a93.12,93.12,0,0,0,11.67-1.79C212.86,195.36,210.81,192.78,209.32,192.85Z"/><path class="cls-27" d="M213.93,201.64c-8.05,1.53-16.14,2.84-24.24,4.15l-12.78,2.06c-3.94.63-8.15,1-11.94,2.23-1.46.49-.2,2.17.87,2.18,4.08,0,8.22-.88,12.24-1.5q6.66-1,13.33-2.11,6.39-1,12.78-2.09c3.75-.62,7.68-1,11.31-2.18C217.56,203.72,215.46,201.35,213.93,201.64Z"/><path class="cls-27" d="M219.07,215.56c-1.08-1.19-2.21-1-3.68-.8-2.51.32-5,.78-7.52,1.14q-7,1-14,1.86t-14,1.54c-5,.49-10.13.66-15.09,1.49a1.53,1.53,0,0,0-.34.09c-4.25-4.57-9.36-8.56-13.92-12.82-.83-.78-4.13-.34-3,.82,4.68,4.6,9.46,9.6,14.82,13.4a2.39,2.39,0,0,0,1.3.21,1.51,1.51,0,0,0,1.45,1.06c8.76.18,17.75-1.15,26.45-2.14q6.48-.75,12.93-1.63,3.24-.45,6.46-.93c1.25-.18,2.51-.37,3.76-.57l1.61-.25.47,0,.09,0,.23.08a1.9,1.9,0,0,0,2.06-.46l.14-.14A1.48,1.48,0,0,0,219.07,215.56Z"/><path class="cls-27" d="M223.83,225.17c-1.24-.82-3-1.48-4.19-.29a0,0,0,0,0,0,0q-14.2,2.64-28.42,5.13c-5.07.89-10.14,1.75-15.21,2.61-4.62.79-9.65,1.14-14.1,2.66-1.27.43,1.4,1.48,1.83,1.47,5.17-.16,10.42-1.39,15.51-2.24q7.35-1.23,14.68-2.51,14.93-2.6,29.83-5.38C224.78,226.44,224.6,225.67,223.83,225.17Z"/><path class="cls-27" d="M231.8,235.84c-1.36-.82-2.79-.48-4.19,0-3.36,1.11-6.73,2.18-10.14,3.16q-9.28,2.66-18.75,4.55c-12.83,2.56-25.74,3.71-38.77,4.55-1.84.12.23,1.16,1,1.16,23.33,0,47.38-4.55,69.43-12.17a2.9,2.9,0,0,0,1,.07l.22-.06c.2-.06.56-.16.61-.41l0-.28C232.34,236.13,232,235.93,231.8,235.84Z"/><path class="cls-27" d="M245.66,249.55q-20.07,3.44-40.37,5.38c-13.32,1.25-26.64,1.74-40,2.4-.84,0-2.59,1.84-2.62,1.84,26.15.32,52.7-2.85,78.47-7.21-.06.14,0,.22.28.13l1.61-.44a5.43,5.43,0,0,0,2.32-1.29C245.52,250.19,246.46,249.41,245.66,249.55Z"/><path class="cls-27" d="M249.93,257.35c-29.56,5.75-59.26,9.42-89.17,12.71-2.35.25-.73,1.72.85,1.61,28.37-1.94,56.76-6.3,84.71-11.61a2.71,2.71,0,0,0,1.08.09c1.48-.37,2.95-.72,4.41-1.15C254.29,258.28,251.18,257.1,249.93,257.35Z"/><path class="cls-27" d="M261,272.42c-.34-.73-2-1-2.7-1.24-3.6-1.12-8.15-.23-11.85-.05q-15,.71-29.95,2.27t-29.76,4c-10.07,1.65-20.41,3.22-30.21,6.07.3-.09,2,1.19,2.82,1.06,8.56-1.46,17-3.45,25.57-4.94s17-2.74,25.48-3.79,17.06-1.9,25.62-2.54q6.16-.45,12.32-.76c2.14-.11,4.29-.2,6.43-.28l2.36-.08a15,15,0,0,0,2.57.86C260.35,273.17,261.42,273.37,261,272.42Z"/><path class="cls-28" d="M164.53,307.71s13.31-49.9,93.7-51,42.14,24.95,42.14,24.95L164.53,307.71"/></g><polygon class="cls-3" points="167.12 189.61 141.62 226.94 165.09 240.44 168.6 192.2 167.12 189.61"/><g class="cls-29"><path class="cls-27" d="M164.14,213.18A40.83,40.83,0,0,0,153,203.26c-1.55-.95-1.33,1.72-.54,2.39,1.91,1.62,3.91,3.11,5.77,4.78s3.31,3.32,5.12,4.77C164.67,216.24,164.61,213.82,164.14,213.18Z"/><path class="cls-27" d="M165,227.5c1,.49,3-.27,2.12-1.45-2.61-3.4-5.71-6.42-8.62-9.56s-5.73-6.66-9-9.5c-.83-.73-3.28-.37-2.37,1,2.38,3.7,5.7,7,8.65,10.22a104.21,104.21,0,0,0,8.58,8.75c-2.33-1.84-4.79-3.56-7.08-5.34-3.89-3-7.77-6.11-11.84-8.92-.57-.39-3,.45-2.94.54,3.58,3.19,7.38,6.1,11.15,9.05s7.59,6.35,11.72,8.94c.57.35,3.36-.42,3.19-.59A43.51,43.51,0,0,0,165,227.5Z"/><path class="cls-27" d="M161.29,232.52c-5.78-3.46-11.6-7-17.63-10.06-.55-.28-2.9.35-2.64.54,5.36,3.69,11.19,6.86,16.83,10.09a3.43,3.43,0,0,0,2.24.14C160.21,233.21,161.75,232.8,161.29,232.52Z"/></g><path class="cls-6" d="M161.94,189.61l7.77-4.43-5,76.88S150.49,208.09,161.94,189.61Z"/><path class="cls-30" d="M229.21,131.17l-22.89-13a20.36,20.36,0,0,0,.35-3.78c0-9.39-6.14-17-13.68-17s-13.67,7.63-13.67,17a20.91,20.91,0,0,0,.84,5.89,5.89,5.89,0,0,0-1.88-.25,7.37,7.37,0,0,0-3.41,1c0-.14,0-.27,0-.41,0-8.87-5.8-16.08-12.94-16.08S149,111.81,149,120.68s5.8,16.08,12.93,16.08c6.22,0,11.42-5.47,12.66-12.74a6.37,6.37,0,0,1,3.75-1.76,4.22,4.22,0,0,1,3.14,1.39l0,0c2.44,4.68,6.67,7.78,11.48,7.78,5.84,0,10.83-4.57,12.79-11l22.33,12.68Zm-67.27,3.37c-5.91,0-10.71-6.22-10.71-13.86s4.8-13.86,10.71-13.86,10.72,6.22,10.72,13.86S167.85,134.54,161.94,134.54ZM193,129.19c-6.32,0-11.46-6.63-11.46-14.79S186.67,99.6,193,99.6s11.46,6.64,11.46,14.8S199.31,129.19,193,129.19Z"/><ellipse class="cls-8" cx="164.16" cy="121.42" rx="2.22" ry="2.77"/><path class="cls-8" d="M194.47,116.06a2.27,2.27,0,1,1-2.22-2.77A2.54,2.54,0,0,1,194.47,116.06Z"/><ellipse class="cls-31" cx="177.58" cy="126.06" rx="6.1" ry="3.7" transform="translate(-28.85 56.69) rotate(-16.79)"/><path class="cls-4" d="M325.31,7.39,224,51.75,230,61,332,26.24ZM324,21.81c-.71,0-1.29-1-1.29-2.22s.58-2.22,1.29-2.22,1.29,1,1.29,2.22S324.74,21.81,324,21.81Z"/><g class="cls-32"><polyline class="cls-33" points="233.28 48.79 329.75 8.5 335.66 22.92 236.61 56.55 235.5 61.73 341.58 24.39 330.49 0 228.84 46.57 233.28 48.79"/></g><path class="cls-2" d="M229.21,170.76c1.11,0,.74-98.68.74-98.68l-15.52,1.1,8.87,97.21Z"/><path class="cls-2" d="M225.52,75l4.43-3s11.83-8.14,6.66-20.33-28.83-18.85-34.38.74,13.31,23.65,13.31,23.65Z"/><polygon class="cls-3" points="226.07 219.74 250.28 170.02 218.5 167.07 219.6 186.29 226.07 219.74"/><g class="cls-34"><path class="cls-27" d="M277,170.14c-11-.68-22.23,0-33.29-.17-10.91-.12-21.91-.92-32.81-.64a6.91,6.91,0,0,0,2.48,1.89c10.86.95,21.92.78,32.81.91q8.25.09,16.5.09c5.55,0,11.23.25,16.75-.34A6,6,0,0,0,277,170.14Z"/><path class="cls-27" d="M264.26,182l-1.56-.53a3.15,3.15,0,0,0-2.1.3q-10.61-.19-21.19-1.25c-8.15-.82-16.17-2.53-24.3-3.45.21-.41.11-.89-.53-.89a.92.92,0,0,0-.89,1.12c-.88.42-1.41,1.23,0,1.65,7.69,2.28,16.06,3.06,24,3.91q12.47,1.33,25,1.45C263.71,184.29,266.27,182.64,264.26,182Z"/><path class="cls-27" d="M252.05,194.09c-.52-.48-2.24-1-2.79-.24l-.14.18a.79.79,0,0,0-.15.58c-.1,0-.26,0-.64-.1a24,24,0,0,0-2.41-.1c-1.45-.06-2.91-.15-4.36-.27a46.64,46.64,0,0,1-8.93-1.55c-6.06-1.79-9.72-5.46-14.12-9.69-.46-.44-2.79-1.11-2.26.24,2.81,7.1,12.06,11,18.92,12.45A75.85,75.85,0,0,0,248.1,197C249.86,197,255.14,197,252.05,194.09Z"/><path class="cls-27" d="M239,202.31a22,22,0,0,1-18.64-9.79c-.48-.7-2.55-1.78-1.69-.1,4.08,8,13.33,13.54,22.33,13C242.13,205.34,240.08,202.32,239,202.31Z"/></g><path class="cls-6" d="M219.23,178.52l-15.52,3.33s-1.85,59.14,45.83,74.66l-1.48-17.37S219.6,207.35,219.23,178.52Z"/><path class="cls-35" d="M207.13,184.81c.06-.17-.15-.11-.2,0a3.68,3.68,0,0,0,.08,3.37c.05.07.17,0,.15-.11A4.5,4.5,0,0,1,207.13,184.81Z"/><path class="cls-35" d="M207.48,190.64c0-.12-.27.05-.26.15a15.52,15.52,0,0,0,.42,3c0,.11.21-.06.21-.13A16.86,16.86,0,0,0,207.48,190.64Z"/><path class="cls-35" d="M208.3,197.68c0-.18-.28,0-.29.14a5.12,5.12,0,0,0,.39,3c.06.11.25,0,.23-.15A13.43,13.43,0,0,1,208.3,197.68Z"/><path class="cls-35" d="M209,203.21c0-.12-.24.06-.22.15a10.62,10.62,0,0,0,.71,2.61c.07.14.29-.06.28-.17A10.85,10.85,0,0,0,209,203.21Z"/><path class="cls-35" d="M210.46,208.38c-.07-.15-.32.08-.28.2a11.26,11.26,0,0,0,1.1,2.63c.08.12.29-.13.26-.23A11.8,11.8,0,0,0,210.46,208.38Z"/><path class="cls-35" d="M213,215.45a12.56,12.56,0,0,1-.62-1.53c0-.12-.24.06-.22.16a5.31,5.31,0,0,0,1.41,3c.1.08.28-.1.24-.21C213.59,216.39,213.21,215.94,213,215.45Z"/><path class="cls-35" d="M214.61,218.7c-.07-.12-.28.06-.23.16a15.41,15.41,0,0,0,1.5,3c.08.11.27-.11.24-.21A16.58,16.58,0,0,0,214.61,218.7Z"/><path class="cls-35" d="M219,226.82c-.29-.44-.67-.8-.94-1.25a6,6,0,0,1-.58-1.29c0-.12-.26.06-.23.17a4,4,0,0,0,1.55,2.61C218.89,227.12,219.05,226.91,219,226.82Z"/><path class="cls-35" d="M221.28,231.1c-.27-.32-.57-.61-.83-.93-.08-.1-.29.11-.21.21.24.31.46.65.7,1a3.67,3.67,0,0,0,.76.9c.11.08.31-.1.26-.22A4.06,4.06,0,0,0,221.28,231.1Z"/><path class="cls-35" d="M224.79,235.16c-.33-.31-.69-.6-1-.92-.08-.07-.27.11-.19.2.32.33.61.69.92,1s.58.74.95.82a.17.17,0,0,0,.18-.18C225.54,235.74,225.07,235.42,224.79,235.16Z"/><path class="cls-35" d="M230,240.93a2.87,2.87,0,0,0-.81-.78c-.34-.26-.68-.49-1-.74-.1-.08-.3.13-.21.21l.94.82a3.18,3.18,0,0,0,.95.64C230,241.09,230.08,241,230,240.93Z"/><path class="cls-35" d="M232.27,242.69c-.12,0-.33.2-.19.28a7.24,7.24,0,0,1,1.47,1c.42.37.74.81,1.13,1.19.09.09.28-.1.24-.2A4.83,4.83,0,0,0,232.27,242.69Z"/><path class="cls-35" d="M240.4,247.87c-.36-.15-.75-.22-1.11-.37a4.39,4.39,0,0,1-1.11-.69c-.09-.09-.31.13-.22.22a3.39,3.39,0,0,0,2.28,1.12C240.33,248.14,240.55,247.94,240.4,247.87Z"/><path class="cls-35" d="M246.68,251.21a15.77,15.77,0,0,0-3-1c-.1,0-.3.19-.17.24a17.57,17.57,0,0,0,3,1C246.61,251.46,246.8,251.27,246.68,251.21Z"/><path class="cls-35" d="M252.55,252.32a8.54,8.54,0,0,1-2.93-.34c-.11,0-.31.19-.18.25a4.3,4.3,0,0,0,3,.32C252.54,252.53,252.7,252.31,252.55,252.32Z"/><path class="cls-35" d="M256.63,252.68a3,3,0,0,0-.52-.06l-.58,0c-.12,0-.35.3-.15.31s.39,0,.59,0a2.6,2.6,0,0,0,.56-.06C256.64,252.94,256.81,252.7,256.63,252.68Z"/><path class="cls-35" d="M216.72,181c0-.13-.26.05-.25.15a17.71,17.71,0,0,0,.48,3.33c0,.12.22-.06.22-.13A20,20,0,0,0,216.72,181Z"/><path class="cls-35" d="M218,189.13c0-.13-.28.07-.25.18a17.2,17.2,0,0,0,1.12,3.31c.05.1.22,0,.2-.12A20.29,20.29,0,0,0,218,189.13Z"/><path class="cls-35" d="M219.81,195.79c0-.11-.25.06-.23.16a12.82,12.82,0,0,0,.67,2.61c.05.11.23-.05.22-.13A13.6,13.6,0,0,0,219.81,195.79Z"/><path class="cls-35" d="M223,204.32a9.65,9.65,0,0,1-.75-1,2.8,2.8,0,0,1-.3-1.2c0-.16-.25,0-.26.12a2.44,2.44,0,0,0,1.11,2.32C222.92,204.6,223.08,204.42,223,204.32Z"/><path class="cls-35" d="M223.86,206.55c0-.15-.26,0-.24.12a4.15,4.15,0,0,0,1,2.65c.08.07.25-.09.21-.18A11.05,11.05,0,0,1,223.86,206.55Z"/><path class="cls-35" d="M227.83,214.68a10.54,10.54,0,0,1-1.15-1,3.09,3.09,0,0,1-.64-1.6c0-.12-.19,0-.19.1,0,1.06.6,2.57,1.8,2.72C227.74,214.94,227.92,214.77,227.83,214.68Z"/><path class="cls-35" d="M232.27,219.82a12.77,12.77,0,0,0-2.53-2.28c-.09-.07-.28.11-.2.2a13.85,13.85,0,0,0,2.57,2.27C232.19,220.05,232.32,219.89,232.27,219.82Z"/><path class="cls-35" d="M237.51,223.79a12.44,12.44,0,0,0-2.28-1.42c-.12-.07-.35.2-.21.29A12.94,12.94,0,0,0,237.3,224C237.4,224.07,237.61,223.88,237.51,223.79Z"/><path class="cls-35" d="M242.23,226.11a9,9,0,0,0-2.22-.73c-.11,0-.31.19-.18.24a10.62,10.62,0,0,0,2.25.75C242.18,226.38,242.35,226.18,242.23,226.11Z"/><path class="cls-35" d="M247,227.52a4.2,4.2,0,0,1-2.19-.32c-.13-.07-.37.21-.22.3a2.67,2.67,0,0,0,2.34.29C247,227.76,247.2,227.51,247,227.52Z"/><path class="cls-35" d="M249.88,228a.89.89,0,0,1-.94.28c-.15,0-.4.24-.24.32a1,1,0,0,0,1.36-.53C250.08,227.9,250,227.89,249.88,228Z"/><path class="cls-35" d="M247.8,186.17a3.94,3.94,0,0,0-.71-.57l-.76-.54c-.1-.07-.3.14-.21.21a9,9,0,0,0,1.52,1.1C247.72,186.41,247.87,186.25,247.8,186.17Z"/><path class="cls-35" d="M249.21,190.66c0-.13-.26.06-.24.17a17.57,17.57,0,0,0,.85,3.3c.06.14.28-.06.27-.16A19.25,19.25,0,0,0,249.21,190.66Z"/><path class="cls-35" d="M250.43,196.17c-.05-.15-.3.07-.27.19a10.73,10.73,0,0,0,.76,2.57c.06.12.24-.05.24-.14A11.47,11.47,0,0,0,250.43,196.17Z"/><path class="cls-35" d="M251.87,200.62c-.05-.11-.25.06-.22.16.18.48.33,1,.52,1.44a3.84,3.84,0,0,0,.59,1.18c.08.09.25-.09.24-.17A9,9,0,0,0,251.87,200.62Z"/><path class="cls-35" d="M253.65,205.08c0-.1-.21,0-.2.12a11.79,11.79,0,0,0,.46,3c0,.11.2,0,.2-.12A13.52,13.52,0,0,0,253.65,205.08Z"/><path class="cls-35" d="M254.85,211c0-.15-.23,0-.24.09a4.84,4.84,0,0,0,.33,3c.09.13.3-.06.29-.17A19.35,19.35,0,0,1,254.85,211Z"/><path class="cls-35" d="M255.58,215.8c0-.12-.21,0-.22.08a4.48,4.48,0,0,0,.35,3c.08.12.26-.07.24-.18A9.92,9.92,0,0,1,255.58,215.8Z"/><path class="cls-35" d="M256.35,220.59c0-.2-.31,0-.31.15s0,.54,0,.81a1.5,1.5,0,0,0,0,.7c.08.16.29-.06.31-.15A4.5,4.5,0,0,0,256.35,220.59Z"/><path class="cls-35" d="M262.55,240.93c-.07-.13-.31.07-.26.18a15.57,15.57,0,0,0,1.6,3.28c.07.09.22-.09.2-.16A16.24,16.24,0,0,0,262.55,240.93Z"/><path class="cls-35" d="M264.45,246.82c-.05-.11-.25.06-.22.16a7.42,7.42,0,0,0,.78,1.83c0,.06.15-.05.14-.1A7.69,7.69,0,0,0,264.45,246.82Z"/><path class="cls-35" d="M265.92,250.92c0-.14-.22,0-.22.1,0,.28,0,.55,0,.82a1.83,1.83,0,0,0,0,.7c.05.13.23-.06.25-.12A5.79,5.79,0,0,0,265.92,250.92Z"/><path class="cls-35" d="M266.7,255.2h0a.69.69,0,0,0,0-.24h0l0,0c-.06,0-.21.09-.22.15a.86.86,0,0,0,0,.27h0s0,0,0,0h0C266.5,255.46,266.7,255.32,266.7,255.2Z"/><path class="cls-35" d="M162.79,191c0-.14-.29.08-.26.19a4.09,4.09,0,0,1-.32,2.18c-.07.18.19.06.24,0A2.66,2.66,0,0,0,162.79,191Z"/><path class="cls-35" d="M161.36,196.56c0-.18-.3,0-.31.15a11.81,11.81,0,0,0,0,2.59c0,.11.2-.05.21-.1A13.69,13.69,0,0,0,161.36,196.56Z"/><path class="cls-35" d="M160.61,202.11c0-.18-.28,0-.29.14a13.85,13.85,0,0,0,0,2.95c0,.16.24,0,.25-.09A15,15,0,0,0,160.61,202.11Z"/><path class="cls-35" d="M160.62,207.28c0-.2-.31,0-.31.15,0,.34,0,.67,0,1a2.54,2.54,0,0,0,0,.87c.05.16.28-.07.3-.14A7.47,7.47,0,0,0,160.62,207.28Z"/><path class="cls-35" d="M160.34,211.37a1.72,1.72,0,0,0,0,2.36c.07.06.22-.08.19-.15a1.92,1.92,0,0,1,0-2.12C160.73,211.25,160.47,211.22,160.34,211.37Z"/><path class="cls-35" d="M160.31,216.2a1.1,1.1,0,0,1,.24-1c.11-.11,0-.22-.11-.11a1.6,1.6,0,0,0-.5,1c0,.31.07.93.44,1,.09,0,.24-.09.22-.19C160.56,216.65,160.36,216.46,160.31,216.2Z"/><path class="cls-35" d="M160.25,221a2.15,2.15,0,0,1,0-1c0-.15-.18,0-.21.05a2.42,2.42,0,0,0-.13,1.1c.05.29.16.73.45.85.09,0,.22-.09.21-.17A5.1,5.1,0,0,0,160.25,221Z"/><path class="cls-35" d="M160.6,225.07c0-.16-.2,0-.22.06a2,2,0,0,0,.35,1.92c.09.08.25-.09.22-.18A3.63,3.63,0,0,1,160.6,225.07Z"/><path class="cls-35" d="M160.93,229.12c0-.11-.17,0-.18.07a2.85,2.85,0,0,0,.37,2.28c.08.1.23-.1.22-.18A8.49,8.49,0,0,1,160.93,229.12Z"/><path class="cls-35" d="M161.71,234.27c0-.16-.26,0-.27.13a10.58,10.58,0,0,0,0,2.25c0,.14.26-.06.27-.13A13,13,0,0,0,161.71,234.27Z"/><path class="cls-35" d="M162.08,239.08c0-.17-.27,0-.27.13,0,.47,0,.94-.05,1.41a2.63,2.63,0,0,0,.08,1.19c0,.11.19-.05.21-.11A7.94,7.94,0,0,0,162.08,239.08Z"/><path class="cls-35" d="M164.42,237.7a14.85,14.85,0,0,0-.44,2.57c0,.18.21,0,.24-.06a14.41,14.41,0,0,0,.46-2.61C164.68,237.43,164.45,237.63,164.42,237.7Z"/><path class="cls-35" d="M165,230.6c0-.17-.18,0-.22,0a4.55,4.55,0,0,0-.32,3.06c0,.11.24-.05.23-.14A7.9,7.9,0,0,1,165,230.6Z"/><path class="cls-35" d="M164.72,225.86a15.34,15.34,0,0,0-.39,2.62c0,.16.25,0,.27-.1a13.58,13.58,0,0,0,.38-2.61C165,225.59,164.75,225.78,164.72,225.86Z"/><path class="cls-35" d="M165,220.6c0-.16-.24,0-.25.09a14.33,14.33,0,0,0,0,2.62c0,.16.26,0,.26-.12A13.18,13.18,0,0,0,165,220.6Z"/><path class="cls-35" d="M165.24,215.15a12.93,12.93,0,0,0-.46,2.63c0,.17.27,0,.29-.11a11.37,11.37,0,0,0,.35-2.59C165.42,215,165.26,215.1,165.24,215.15Z"/><path class="cls-35" d="M165.77,211.33c0-.14-.25,0-.26.12a12.08,12.08,0,0,0,0,2.25c0,.17.26,0,.26-.13A10.48,10.48,0,0,0,165.77,211.33Z"/><path class="cls-35" d="M165.58,206.27a14.08,14.08,0,0,0-.48,2.59c0,.18.23,0,.25-.07a12,12,0,0,0,.41-2.58C165.76,206.09,165.6,206.22,165.58,206.27Z"/><path class="cls-35" d="M166.48,201c.05-.14-.15-.06-.19,0a4.25,4.25,0,0,0-.58,3.08c0,.16.27,0,.26-.13A6.94,6.94,0,0,1,166.48,201Z"/><path class="cls-35" d="M166.59,197a10,10,0,0,0-.41,1.88c0,.19.23,0,.26-.06a8.62,8.62,0,0,0,.38-1.87C166.82,196.8,166.62,196.93,166.59,197Z"/><path class="cls-35" d="M167,192.94a9.64,9.64,0,0,0-.41,1.86c0,.18.21,0,.24-.06a8.62,8.62,0,0,0,.44-1.87C167.25,192.7,167,192.87,167,192.94Z"/><path class="cls-35" d="M168.53,187.7a3.15,3.15,0,0,0-.94,2.73c0,.18.29,0,.28-.13a4,4,0,0,1,.84-2.49C168.83,187.64,168.66,187.59,168.53,187.7Z"/><path class="cls-4" d="M305.36,204.4s-1.85,49.9-66.91,59.88S159,316,159,316s-23.82-25-57.29-31c-37-6.65-47.31-35.48-47.31-35.48C49,266.39,56.58,286.25,59.56,293a73.24,73.24,0,0,0-16.65,8.26c-.1.07-.13.3,0,.2a94.38,94.38,0,0,1,16.79-8.1c.57,1.28.94,2,.94,2L169.34,338.2l155.61-68Z"/><path class="cls-36" d="M33,297.17s37-46.2,125.3,23.29c0,0,15.89-29.2,91.66-52.86s78.73-45.83,78.73-45.83l4.07,63.94L172.29,343.37Z"/><path class="cls-4" d="M169,349.29s-.37-43.62,76.88-69.49S334.92,238,334.92,238l10,37.33Z"/><g class="cls-37"><path class="cls-36" d="M334.35,245.56c0-.21-.25-.1-.35,0-7.45,6.52-16.28,11.2-25.33,15.1-9.66,4.18-19.6,7.73-29.44,11.48q-15.59,5.94-31.16,11.89a247.48,247.48,0,0,0-26,11.26,93.82,93.82,0,0,0-22.53,15.78c-.82.79-1.61,1.62-2.38,2.46-.14.15,0,.3.14.14a90.93,90.93,0,0,1,22.55-16.83,220.9,220.9,0,0,1,25.83-11.52c10.2-3.95,20.45-7.8,30.67-11.69,10-3.8,20-7.44,29.86-11.54C315.19,258.36,324,254,331.62,248c.79-.63,1.56-1.27,2.31-1.93q1.05,6.75,2.08,13.51c.05.28.49,0,.46-.22Q335.41,252.45,334.35,245.56Z"/></g><path class="cls-4" d="M143.09,326.48c-2.06-6.56-6.92-11.86-12.34-15.91-5.77-4.32-12.34-7.45-19-10.22a107.13,107.13,0,0,0-24.74-7.46,60,60,0,0,0-23.21.63,44.08,44.08,0,0,0-19.16,9.65,27,27,0,0,0-2,1.9c-.21.21,0,.42.21.21C53.74,294.49,69.51,291.19,84.29,293A98.64,98.64,0,0,1,109,299.76a100,100,0,0,1,19.43,9.81,44.69,44.69,0,0,1,8.51,7.37,32.17,32.17,0,0,1,5.87,9.76C142.85,326.86,143.13,326.62,143.09,326.48Z"/><path class="cls-4" d="M127.13,323.59c-3.65-8.65-11.08-15.31-19.67-18.89-10.29-4.29-22-4.16-32.66-1.35-5.48,1.45-10.91,3.72-15,7.74-.14.13,0,.26.13.13,3.82-3.57,8.67-5.71,13.64-7.13a58.3,58.3,0,0,1,16.24-2.29c10.08,0,20.12,3.14,27.81,9.8a33.66,33.66,0,0,1,9.07,12.31C126.78,324.13,127.21,323.79,127.13,323.59Z"/><path class="cls-4" d="M325.58,238.77c0-.2-.26-.11-.35,0-8.06,9.25-18.89,15.52-30.21,20-12.94,5.11-26.63,7.93-40,11.65A194.19,194.19,0,0,0,221.27,283a149.23,149.23,0,0,0-29.61,19A123.48,123.48,0,0,0,179,314.08q-2.87,3.15-5.49,6.52a33.1,33.1,0,0,0-4.83,7.89,17.15,17.15,0,0,0-1.1,4.16c0,.19.23.06.25-.06,1-6.31,5.47-11.53,9.52-16.2a121.63,121.63,0,0,1,12.34-12.32,145.41,145.41,0,0,1,29.39-19.56,187.48,187.48,0,0,1,33.47-13c13.2-3.79,26.73-6.52,39.65-11.26,11-4.06,21.78-9.67,30.22-18,.95-.93,1.86-1.9,2.74-2.9.39,2.7.77,5.4,1.16,8.1,0,.28.48,0,.46-.22Q326.17,243,325.58,238.77Z"/><path class="cls-5" d="M21.05,285.58l124.26,34.14s-2.22,9.61,15.53,7.76S176,316,176,316l174.46-65,72.44,143.78L247,412.86s2.21,5.18-12.94,6.29-18.11-10.72-18.11-10.72l-92.78-16.27L21,287.5Z"/><g class="cls-38"><polyline class="cls-39" points="16.84 286.13 141.58 323.55 215.91 408.43 223.91 426.67 246.36 420.85 246.96 412.86 179 318.56 356.96 252.87 343.65 234.57 16.01 271.99 16.84 286.13"/></g><path class="cls-40" d="M129.48,36.37c.08-.42.17-.89.24-1.39a.09.09,0,0,0,0-.1c.55-4,.26-10.22-4.83-9.75-3.8.35-5.89,3.31-7.21,6.61h0a38.43,38.43,0,0,0-1.48,4.76c-.91,3.57-1.9,7.13-2.88,10.69s-2,7-2.76,10.6a.23.23,0,0,0-.12.31q1.53,4.55,3,9.1a.31.31,0,0,0,.55.09,20.78,20.78,0,0,1,3-3.17c1.09-.9,2.3-1.57,3.44-2.39a5.87,5.87,0,0,0,2-3.29q.75-2.34,1.52-4.67,1.53-4.68,3-9.36C127.94,41.75,128.89,39.1,129.48,36.37Zm-6.65-10.08a5.5,5.5,0,0,1,3.67-.51c1.51.38,2.11,1.82,2.49,3.19a12.79,12.79,0,0,1,.33,4.81,81.85,81.85,0,0,0-11.07-2.11A10,10,0,0,1,122.83,26.29Zm-8.92,40.23c-.38-1.1-.75-2.21-1.12-3.32.6-.47,1.13-1.1,2-.79s1,1.11,1.3,1.81A20.69,20.69,0,0,0,113.91,66.52Zm6-5.06a33.36,33.36,0,0,0-3.31,2.33,2.77,2.77,0,0,0-1.71-1.92,2.24,2.24,0,0,0-2.25.82L111,58l0-.08a14.64,14.64,0,0,1,1-1.45,3.17,3.17,0,0,1,1.33-1.09c1.41-.35.47,2.3.61,3,.05.25.39.22.47,0a8,8,0,0,1,.86-1.61,4,4,0,0,1,1.21-1.35c1.26-.54,1,1.28.93,1.81a13.19,13.19,0,0,1-.26,1.67c0,.13-.06.25-.08.38s.37.43.44.13.07-.3.11-.45a4,4,0,0,1,.51-1.18c.23-.37.85-1.24,1.35-1.34,1-.18.42,1.42.34,1.76a11,11,0,0,1-.6,1.84c-.09.24.3.43.42.19s1.33-3,1.55-2.92.22.86.22,1a13.26,13.26,0,0,1-.25,1.88A4,4,0,0,1,119.89,61.46Zm6.81-17.79-2.82,8.65-1.57,4.82c-.14.42-.28.85-.41,1.28a4,4,0,0,0,0-.49c0-.32-.14-1-.49-1.12a.42.42,0,0,0-.41,0c.26-.71.5-1.43.76-2.14.51-1.43,1.09-2.85,1.51-4.3a.16.16,0,0,0-.3-.09c-.58,1.34-1,2.76-1.52,4.14-.31.87-.64,1.74-.94,2.61.05-.47.06-1-.5-1.18s-1.39.55-1.8,1a79.4,79.4,0,0,0,2.79-9.5.13.13,0,0,0-.25-.07c-1,3.11-1.79,6.27-2.8,9.38,0-.19,0-.39,0-.58,0-.56-.17-1.34-.85-1.45s-1.35.71-1.74,1.16a7.47,7.47,0,0,0-.66.93c.44-1.6,1-3.17,1.44-4.77.05-.16-.17-.21-.24-.07a23,23,0,0,0-1.24,4,.3.3,0,0,0,0-.1,1.15,1.15,0,0,0-1-1,2.8,2.8,0,0,0-1.72,1.12,8.76,8.76,0,0,0-.66.82c.74-2.5,1.39-5,2.09-7.53.81-2.88,1.62-5.76,2.4-8.65.28-1,.53-2.06.79-3.1a4,4,0,0,0,1,.3l1.24.27c-.9,3.38-1.87,6.81-2.51,10.24,0,.19.24.29.3.09,1-3.35,1.75-6.84,2.52-10.26h0l3.06.69.89.2,0,0c-.63,2.18-1.19,4.38-1.74,6.58a.15.15,0,0,0,.28.09c.62-2.19,1.23-4.37,1.78-6.58v-.06l1.87.41.35.08c-.24.83-.44,1.66-.64,2.5s-.5,1.86-.67,2.8a.13.13,0,0,0,.26.07,37.69,37.69,0,0,0,1.33-5.3,13.69,13.69,0,0,0,2.09.38C127.52,41.23,127.1,42.45,126.7,43.67Zm-1.61-4.77L122,38.22c-1-.23-2-.45-3.07-.66-.51-.11-1-.21-1.55-.3a4.13,4.13,0,0,0-.85,0c0-.1,0-.2.07-.29a8.21,8.21,0,0,0,1.75.25.13.13,0,0,0,0-.25,7.94,7.94,0,0,0-1.71-.3c.34-1.34.71-2.66,1.17-4a4.65,4.65,0,0,0,1.6.22.13.13,0,0,0,0-.26,11,11,0,0,0-1.54-.25c0-.09.07-.19.11-.29,3.74.7,7.48,1.31,11.18,2.22,0,.12,0,.24,0,.36-.41-.12-.82-.2-1.23-.29a.06.06,0,0,0,0,.12c.41.14.82.29,1.23.4-.07.47-.16.94-.26,1.41-.2.88-.43,1.76-.69,2.63-1.08-.27-2.17-.46-3.25-.7-.13,0-.19.16-.06.19,1.08.25,2.15.55,3.23.78l-.09.31A29.36,29.36,0,0,0,125.09,38.9Z"/><path class="cls-40" d="M123.6,36.68l-.86-.12a7.49,7.49,0,0,0,1.16-1.09c.18-.23.4-.56.26-.87s-.58-.28-.86-.18a.79.79,0,0,0-.55.72c0,.06.07.08.1,0a.88.88,0,0,1,.62-.55c.2,0,.45,0,.44.26a.68.68,0,0,1-.16.33,5.74,5.74,0,0,1-1.47,1.31c-.1.07-.12.26,0,.29.42.08.85.14,1.28.2C123.81,37.06,123.82,36.71,123.6,36.68Z"/><path class="cls-40" d="M124.73,34a1.57,1.57,0,0,0-2.46.26c-.62.82-.9,2.43-.13,3.25a1.47,1.47,0,0,0,2.24-.12h0a1.4,1.4,0,0,0,.1-.16.13.13,0,0,0,0-.08C124.93,36.26,125.35,34.74,124.73,34Zm-.46,3.08a1.24,1.24,0,0,1-2.28-.75,2.76,2.76,0,0,1,.73-2.13,1.27,1.27,0,0,1,1.54-.24,1.14,1.14,0,0,1,.44,1,7.17,7.17,0,0,1-.4,2Z"/><path class="cls-40" d="M127.71,28.6a1.12,1.12,0,0,0,.69.13c.07,0,.12-.14,0-.19a1.52,1.52,0,0,0-.32-.06l-.33-.11C127.63,28.31,127.57,28.54,127.71,28.6Z"/><path class="cls-40" d="M128.44,29.55a.12.12,0,0,0,.07-.22,4.38,4.38,0,0,0-1.08-.34.13.13,0,0,0-.08.24A4.37,4.37,0,0,0,128.44,29.55Z"/><path class="cls-40" d="M128.55,30.4c.07,0,.14-.09.1-.16-.22-.31-.77-.34-1.12-.33-.17,0-.18.27,0,.27a2.62,2.62,0,0,1,.56.09A1.57,1.57,0,0,0,128.55,30.4Z"/><path class="cls-40" d="M128.05,31.09a.53.53,0,0,0,.39,0,.13.13,0,0,0,.05-.16c-.15-.22-.54-.25-.78-.31a.16.16,0,0,0-.09.31Z"/><path class="cls-40" d="M128.43,31.64a1.2,1.2,0,0,0-.67-.29c-.22,0-.33.29-.11.33s.41.15.63.2S128.54,31.75,128.43,31.64Z"/><path class="cls-40" d="M127.55,32a.18.18,0,0,0-.1.34c.17.06.43.18.6.08a.14.14,0,0,0,.06-.19C128,32.06,127.74,32,127.55,32Z"/><path class="cls-40" d="M127.66,32.54c-.12,0-.24,0-.35-.1s-.34.17-.16.25a.56.56,0,0,0,.53.05A.11.11,0,0,0,127.66,32.54Z"/><path class="cls-40" d="M115.56,109.93a19.87,19.87,0,0,0-3.45,0,10.81,10.81,0,0,0-1.24.06,21.27,21.27,0,0,0-1.9-3.22q-1.53-2.37-3.19-4.66a18.69,18.69,0,0,0-1.93-2.54,15.1,15.1,0,0,0,1-1.39,10.9,10.9,0,0,0,1.52-2.64.8.8,0,0,0-1.33-.77,10.57,10.57,0,0,0-1.55,2.41,16,16,0,0,0-.87,1.64,4.33,4.33,0,0,0-1.44-.1c-1.07.09-2.14.14-3.22.17-2.14.07-4.28.14-6.41.27a19.2,19.2,0,0,0-2,.14,20.43,20.43,0,0,0-1.84-3.61.53.53,0,0,0-1,.41,22.54,22.54,0,0,0,1.44,3.84,5,5,0,0,0-.78,1.21,54.68,54.68,0,0,0-3.79,9.32,90.88,90.88,0,0,1-14.57.3.8.8,0,0,0-.85,1,40.69,40.69,0,0,0-3,4.9c-1,1.78-2,3.55-3,5.35a10.8,10.8,0,0,0-5.27-.15c-1.14.2-.66,2,.48,1.75a26.09,26.09,0,0,1,4.84,0,70.88,70.88,0,0,1,6,10.87,14,14,0,0,0-1.12,1.54c-.67.92-2,2.27-1.84,3.48a.55.55,0,0,0,.7.53c1.18-.37,1.75-1.9,2.37-2.89a22.31,22.31,0,0,0,1.28-1.84,90.09,90.09,0,0,0,10.26.43c.69,0,1.47,0,2.18,0,.3.4.64.76.95,1.14a21,21,0,0,1,1.41,2c.62,1,2.21.06,1.56-.91a22.56,22.56,0,0,0-1.49-2c-.29-.35-.59-.73-.93-1.07a1.13,1.13,0,0,1,.12-.21q1.32-2.39,2.66-4.77c.86-1.52,1.74-3,2.56-4.57a4,4,0,0,0,.44-1.22h.11l1.33,0c1.36,0,2.73,0,4.1,0,2.75,0,5.49,0,8.24.06.17.52.42,1,.64,1.53a8.76,8.76,0,0,0,1,2.06.81.81,0,0,0,1.38-.57,6.11,6.11,0,0,0-.82-2.12c-.24-.47-.46-1-.72-1.43l.06-.12c1.5-3.72,3.79-7.12,5.67-10.65.19-.36.39-.7.54-1.06a11,11,0,0,0,1.28,0,12.07,12.07,0,0,0,3.45-.13C116.28,111.3,116.38,110.05,115.56,109.93ZM86.4,125.86l-1.56,2.78q-1.43,2.56-2.87,5.13a91.26,91.26,0,0,1-12.26-.34,70.76,70.76,0,0,0-5.89-10.73c1-1.74,1.92-3.48,2.9-5.21a38.05,38.05,0,0,0,2.61-4.93,92.87,92.87,0,0,0,14.15-.31l2,5.25c.37,1,.75,2,1.13,3a11.74,11.74,0,0,1,1,2.71C87.68,124.08,86.83,125.09,86.4,125.86Zm22.17-13.76c-1.81,3.33-3.88,6.57-5.39,10.06-3.06,0-6.13-.09-9.19-.09-1.33,0-2.67,0-4,0-.23,0-.55,0-.86,0-.08-.27-.18-.55-.29-.85L85,111.05a1.42,1.42,0,0,0-.08-.18c1-2.49,2-5,3.2-7.44.31-.62.91-2.24,1.45-2.47a6.73,6.73,0,0,1,1.77-.14c1.94-.11,3.88-.17,5.82-.24l2.54-.07c.51,0,1-.07,1.51-.11a2.16,2.16,0,0,1,1.23.11v0a12.5,12.5,0,0,1,2,2.6q1.42,2,2.78,4.1a32,32,0,0,1,2,3.31l.08.18A14.51,14.51,0,0,0,108.57,112.1Z"/><path class="cls-40" d="M57.72,102.07c0,1.57.13,3.13.29,4.69.06.56.93.57.88,0,0-.15,0-.29,0-.43-.17-1.66-.28-3.33-.31-5a52,52,0,0,0,0-5.44.21.21,0,0,0-.4,0,18.29,18.29,0,0,0-.44,5.27v.12h-.08a16.8,16.8,0,0,0-3.21.74c0-.14,0-.28,0-.42l-.09-2.7A5.44,5.44,0,0,0,54,96.67c-.1-.24-.43-.14-.51.07a6,6,0,0,0-.09,2.32c0,1,.09,2,.14,2.93.08,1.75.13,3.51.37,5.25,0,.31.51.21.52-.07.1-1.51,0-3,0-4.55A16,16,0,0,0,57.72,102.07Z"/><path class="cls-40" d="M60.39,103.72a3,3,0,0,0,4.45.41c1.67-1.4,1.55-3.86.52-5.61-.94-1.6-2.93-2.85-4.38-1.12a.48.48,0,0,0-.06.51C59.89,99.66,59.11,101.89,60.39,103.72Zm1.08-5.55a.56.56,0,0,0,.16-.12c1.37-1.65,3,.69,3.41,2a3.06,3.06,0,0,1-1.36,3.77,2.14,2.14,0,0,1-3-1.72A6.94,6.94,0,0,1,61.47,98.17Z"/><path class="cls-40" d="M73,93.85a.33.33,0,0,0,.62,0,21.31,21.31,0,0,0,0-5.11v-.36c.64.05,1.3,0,2,0a10.83,10.83,0,0,0,1.61,0c0,.34,0,.67.08,1a15.42,15.42,0,0,0,.8,4.59c.14.31.59.12.61-.17a42.27,42.27,0,0,0-.55-4.86C78,87.28,78,85.65,77.93,84a.37.37,0,0,0-.74,0,23,23,0,0,0,0,3.52,11.45,11.45,0,0,0-1.55,0c-.65,0-1.31,0-2,0a13.58,13.58,0,0,0-.36-3.9.19.19,0,0,0-.35,0,20.06,20.06,0,0,0-.12,5.08A21.78,21.78,0,0,0,73,93.85Z"/><path class="cls-40" d="M80.2,91.17a2.65,2.65,0,0,0,4,.61C86.82,89.3,82.66,83,80.57,86a.35.35,0,0,0,0,.38A4.18,4.18,0,0,0,80.2,91.17Zm.73-4.57a.44.44,0,0,0,.41-.19c1-1.4,2.54,1.43,2.76,2.17.33,1.13,0,2.76-1.35,3s-2.3-1.11-2.4-2.3A5.93,5.93,0,0,1,80.93,86.6Z"/><path class="cls-40" d="M63.3,193.32c-1.31-1.43-3.39-2.18-5.15-2.85a26.11,26.11,0,0,0-6.82-1.74c-.4,0-.49.62-.1.7,3.58.73,7.41,1.53,10.52,3.58a3.73,3.73,0,0,1,1.65,1.9c.34,1.24-.9,2.1-1.8,2.69a16.64,16.64,0,0,1-4.79,2,61.17,61.17,0,0,1-9.35,1.64c-.83-2.09-1.68-4.16-2.58-6.22.71-1.1,1.41-2.19,2.09-3.3a89.85,89.85,0,0,0,6.13-10.85c1.14-2.62,2.52-8.61-1.62-9.45-3.41-.69-7.12,2.14-8.75,4.89-.17.28.25.52.43.25a10.75,10.75,0,0,1,3.59-3.38c1.37-.78,3.25-1.5,4.83-1.06,2,.56,2.18,3.18,2,4.88a15.82,15.82,0,0,1-1.88,5.28c-2.16,4.12-4.57,8.12-7.11,12l-.36-.84c-.68-1.51-1.39-3.07-2.15-4.6,1.33.05,2.67.11,4,.14.25,0,.23-.34,0-.36-1.43-.16-2.88-.3-4.32-.42a31.84,31.84,0,0,0-3-4.79c-.15-.19-.41.05-.32.24.74,1.52,1.61,3,2.4,4.48-2.4-.18-4.8-.29-7.21-.3q2.34-3.17,4.93-6.1a1.37,1.37,0,0,0,.69.28,2.4,2.4,0,0,0,2-1c1-1.09,1.53-3,.24-4.09a2.62,2.62,0,0,0-3.54.32,3,3,0,0,0,.14,3.93c-1.87,2.13-3.66,4.35-5.34,6.65-2,0-4,.09-6,.26q-1.26-3.66-2.18-7.43A50.69,50.69,0,0,1,23,172.84c-.07-1,.26-2,1.42-2a3.89,3.89,0,0,1,1.8.6,21.3,21.3,0,0,1,3.65,2.91,45.08,45.08,0,0,1,5.94,7c.18.25.57,0,.41-.24A31.07,31.07,0,0,0,30.52,174a30.85,30.85,0,0,0-3.34-2.81,4.63,4.63,0,0,0-3.2-1c-2.68.47-1.48,4.24-1.17,6A85.57,85.57,0,0,0,25,185.2q.46,1.53,1,3l-.53.05a43.29,43.29,0,0,0-9.42,1.92A16,16,0,0,0,12.36,192a7.49,7.49,0,0,0-2.72,2.64c-1.22,2.64,3.53,4.11,5.48,4.28a2,2,0,0,0,.31,2.86,2.36,2.36,0,0,0,3.29-.67,2.72,2.72,0,0,0-.73-3.63,2.14,2.14,0,0,0-1.58-.29,1.41,1.41,0,0,0-.62.34,1.27,1.27,0,0,0-.23.34,1,1,0,0,0,0,.17.33.33,0,0,0-.22,0l-.1.08a7.55,7.55,0,0,1-2.84-.73,4.22,4.22,0,0,1-2-1.58c-.7-1.53,2.53-3.35,3.58-3.9a30.8,30.8,0,0,1,9.94-2.68c.79-.11,1.58-.19,2.37-.27q1,2.81,2.17,5.54c-1.27,2.15-2.45,4.36-3.5,6.62l-.15.34c-1.69-.16-3.37-.33-5.06-.48-.27,0-.33.42-.07.48,1.58.33,3.18.57,4.79.75a32.47,32.47,0,0,0-2.81,10c-.15,1.62-.63,7.91,2.71,6.72a15.79,15.79,0,0,0,4.46-3.07,39.46,39.46,0,0,0,3.94-4c1-1.21,2-2.46,3-3.73a86.23,86.23,0,0,0,6.89,9c1.8,2.06,4.28,4.45,7,2.37s2.26-5.55,1.75-8.46a2.08,2.08,0,0,0,1.73-1.72c.32-1.36-.28-3.21-1.72-3.67a1.93,1.93,0,0,0-2.49,2.2l0,.06a2.87,2.87,0,0,0,1,2.64,2.36,2.36,0,0,0,.72.4.28.28,0,0,0,0,.18c.47,2.69,1,6.39-1.83,8s-5-1.74-6.53-3.54a83.32,83.32,0,0,1-6.08-8.15q1.8-2.37,3.52-4.8,3.57-.15,7.14-.55H47l.9,2.27c.18.45.9.25.72-.19-.28-.72-.57-1.44-.86-2.16a46.42,46.42,0,0,0,11.43-2.32C61.63,198.71,66.09,196.34,63.3,193.32ZM38.11,178.48a1.89,1.89,0,0,1,2.16-1.28,1.58,1.58,0,0,1,1.15,2.12c-.21.75-2,3.15-2.68,1.5a.38.38,0,0,0-.34-.23A2.76,2.76,0,0,1,38.11,178.48ZM15.73,199.1a.24.24,0,0,0,.07-.18c.37-.2.29-.69.6-.94s1.06,0,1.37.23a1.88,1.88,0,0,1-.59,3.12A1.37,1.37,0,0,1,15.73,199.1Zm34.12,10.2a2.81,2.81,0,0,1-.32-1.33.36.36,0,0,0,.11-.35,1.13,1.13,0,0,1,0-.44.43.43,0,0,0,0-.11c.23-.85,1.63-.95,2.24-.27a2.71,2.71,0,0,1,.48,2.54C51.88,210.74,50.46,210.41,49.85,209.3ZM27,188.89c1.73-.14,3.46-.2,5.19-.22q-1.76,2.46-3.32,5Q27.88,191.33,27,188.89ZM25.59,201.3c1-2,2-4.05,3.17-6,1,2.27,2.1,4.5,3.29,6.67-2.2-.08-4.38-.24-6.56-.44A2.14,2.14,0,0,1,25.59,201.3Zm8.13,8.21a38.79,38.79,0,0,1-7,7.11,22.08,22.08,0,0,1-1.92,1.28c-.51.29-1.27.63-1.77.18a2.46,2.46,0,0,1-.6-1.22,15.17,15.17,0,0,1-.07-5,32.36,32.36,0,0,1,2.81-9.56c2.44.24,4.9.36,7.32.42q1.36,2.43,2.88,4.76C34.81,208.14,34.27,208.83,33.72,209.51Zm2.1-2.69q-1.3-2-2.49-4.11c1.85,0,3.71,0,5.56-.05Q37.39,204.76,35.82,206.82Zm3.6-4.9c-2.05.08-4.1.11-6.15.07h-.35q-2-3.64-3.69-7.48c1.19-2,2.48-3.94,3.84-5.83,2.71,0,5.42.1,8.13.21.81,1.59,1.57,3.21,2.3,4.84.2.45.4.91.59,1.36-1.24,1.89-2.51,3.77-3.81,5.62C40,201.11,39.71,201.51,39.42,201.92Zm5.95-.42c-1.69.17-3.39.28-5.09.37,1.41-2,2.79-4,4.12-6.08.8,1.85,1.56,3.71,2.3,5.57Z"/><path class="cls-40" d="M40.19,192.29a3.62,3.62,0,0,0-2.61-2.08,2.34,2.34,0,0,0-2.26,1l-.09,0c-1.82,1.45-3.26,4.57-1.62,6.69a4,4,0,0,0,5.42.65A5.08,5.08,0,0,0,40.19,192.29Zm-2,5.92a3.3,3.3,0,0,1-4.14-.94c-1.08-1.66,0-4.1,1.12-5.56a.3.3,0,0,0,.51.16c.74-.79,1.54-1.23,2.59-.62a3.81,3.81,0,0,1,1.61,2.41A4.09,4.09,0,0,1,38.2,198.21Z"/><path class="cls-40" d="M35,193.77a.58.58,0,0,0,.44-.31.15.15,0,0,0-.18-.18c-.13,0-.22.12-.35.15S34.81,193.81,35,193.77Z"/><path class="cls-40" d="M34.92,194.77a1.9,1.9,0,0,1,.53-.4c.11-.05.07-.27-.07-.25a1,1,0,0,0-.72.39C34.51,194.69,34.75,195,34.92,194.77Z"/><path class="cls-40" d="M35.84,195.17a.19.19,0,0,0-.13-.31,1.31,1.31,0,0,0-.71.26,3.66,3.66,0,0,0-.62.48c-.2.2.09.47.3.3a4.07,4.07,0,0,1,.59-.4A2,2,0,0,0,35.84,195.17Z"/><path class="cls-40" d="M36.39,195.85c.08-.1,0-.28-.14-.23a2.75,2.75,0,0,0-.74.43c-.24.17-.48.32-.71.51s.05.38.22.28.49-.32.73-.48A2.87,2.87,0,0,0,36.39,195.85Z"/><path class="cls-40" d="M36.79,196.67a.12.12,0,0,0-.1-.18c-.47,0-.92.49-1.2.81s.11.5.3.3a5,5,0,0,1,.54-.48A1.32,1.32,0,0,0,36.79,196.67Z"/><path class="cls-40" d="M37,197.42c-.33-.16-.74.17-1,.38s.08.57.31.4a4.37,4.37,0,0,1,.4-.25c.13-.08.28-.14.34-.28A.19.19,0,0,0,37,197.42Z"/><path class="cls-40" d="M37.61,197.53a1,1,0,0,0-.45.33.25.25,0,0,0,.35.36.94.94,0,0,0,.33-.46A.19.19,0,0,0,37.61,197.53Z"/><path class="cls-40" d="M36.94,177.3a1.52,1.52,0,0,0,.24-.77.17.17,0,0,0-.29-.12,1.47,1.47,0,0,0-.37.71C36.43,177.36,36.82,177.53,36.94,177.3Z"/><path class="cls-40" d="M37.66,176.21c.28,0,.59-.21.53-.51a.2.2,0,0,0-.2-.14,1.42,1.42,0,0,0-.4.12A.27.27,0,0,0,37.66,176.21Z"/><path class="cls-40" d="M39.62,175.69a.2.2,0,0,0,0-.31.72.72,0,0,0-.26-.08,2.85,2.85,0,0,0-.29,0,.22.22,0,0,0-.16.38A.55.55,0,0,0,39.62,175.69Z"/><path class="cls-40" d="M40.73,176a.36.36,0,0,0,.36-.35.37.37,0,0,0-.36-.36c-.12,0-.23,0-.35,0a.29.29,0,0,0-.2.36A.47.47,0,0,0,40.73,176Z"/><path class="cls-40" d="M14.2,202a.28.28,0,0,0-.51-.21.62.62,0,0,0,.08.75.29.29,0,0,0,.28.07.27.27,0,0,0,.2-.27C14.25,202.24,14.17,202.15,14.2,202Z"/><path class="cls-40" d="M15.41,203.18c-.08-.06-.19,0-.26-.1a.26.26,0,0,0-.43.25.45.45,0,0,0,.6.32.29.29,0,0,0,.2-.26v0A.21.21,0,0,0,15.41,203.18Z"/><path class="cls-40" d="M16.69,203.33a.29.29,0,0,0-.29.5.6.6,0,0,0,.41.12.33.33,0,0,0,.29-.22.27.27,0,0,0-.08-.29C16.92,203.34,16.8,203.38,16.69,203.33Z"/><path class="cls-40" d="M18.28,202.67a1,1,0,0,0-.18.36.35.35,0,0,0,.58.34.77.77,0,0,0,.22-.34C19,202.7,18.51,202.39,18.28,202.67Z"/><path class="cls-40" d="M51.66,204.2a.29.29,0,0,0,.15.56c.21,0,.49-.08.59-.29a.26.26,0,0,0-.09-.34A.72.72,0,0,0,51.66,204.2Z"/><path class="cls-40" d="M54.07,205.49c.18-.38-.47-.55-.72-.57a.26.26,0,0,0-.22.38C53.28,205.55,53.88,205.87,54.07,205.49Z"/><path class="cls-40" d="M54.65,206.8a.18.18,0,0,0,.26-.07c.18-.26,0-.54-.25-.69a.26.26,0,0,0-.35.35C54.41,206.54,54.48,206.73,54.65,206.8Z"/><path class="cls-40" d="M54.8,207.53a.41.41,0,0,0-.18.56c.12.23.42.13.5-.06s0-.15.05-.22S55,207.41,54.8,207.53Z"/><path class="cls-40" d="M54.5,209a.32.32,0,0,0-.42.11.67.67,0,0,0-.13.41c0,.51.83.36.66-.09,0-.06,0-.07,0,0A.3.3,0,0,0,54.5,209Z"/><path class="cls-40" d="M69,369.59a10.07,10.07,0,0,0-10.23-4.54,10.29,10.29,0,0,0-7.49,6.09A12.87,12.87,0,0,0,49.79,367a17.38,17.38,0,0,0,9.58-18.79.39.39,0,0,0-.58-.22,23.93,23.93,0,0,0-10,15.74,95.69,95.69,0,0,0-4.56-11.56.39.39,0,0,0-.67,0,16.65,16.65,0,0,1-4.06,5.94.38.38,0,0,0,0,.54A32.55,32.55,0,0,1,50,373a9,9,0,0,0-3.42-2.91,8.29,8.29,0,0,0-5.27-.45,9.92,9.92,0,0,0-7.41,8.06c-1.81,9.64,7.15,17.27,15.18,20.5,2.24.9,5,2,7.48,1.61a3.87,3.87,0,0,0,3.16-2.68,3.52,3.52,0,0,0,2.28.91,3.12,3.12,0,0,0,3.24-2.49c.31-1.13.45-2.27.84-3.38a33.13,33.13,0,0,1,1.61-3.54,36,36,0,0,0,2.68-6.45C71.58,378,71.49,373.33,69,369.59ZM53.46,356.27a9.78,9.78,0,0,0-.5-1.2A23.1,23.1,0,0,1,58.72,349v0c-1.42,2.68-2.68,5.46-4.11,8.14-.18.34-.37.67-.55,1a4.23,4.23,0,0,1-.27-.93Q53.64,356.75,53.46,356.27Zm1.16,1.54c1.43-2.64,3-5.31,4.2-8.05a16.23,16.23,0,0,1-1.26,8.06l-1.49.23a5.75,5.75,0,0,1-1.73.26C54.44,358.15,54.53,358,54.62,357.81Zm-6.07,7.82a.4.4,0,0,0,.77-.11,22.86,22.86,0,0,1,3.44-10.13c.3,1.07.77,2.12,1.08,3.18-.5.9-1,1.8-1.5,2.7a18.22,18.22,0,0,1-2.59,4,.06.06,0,0,0,.07.09c1.19-.57,1.81-2.2,2.43-3.27s1.25-2.22,1.86-3.34q1.64-.28,3.27-.51a16.29,16.29,0,0,1-8.25,8.22.4.4,0,0,0-.23.58,12.51,12.51,0,0,1,1.85,5.81.14.14,0,0,0,0,.06,2.56,2.56,0,0,0-.05.27,31.19,31.19,0,0,0-10.25-14.7c1.59-.48,3.09-1,3.8-2.7a4.21,4.21,0,0,0,.26-1A93.62,93.62,0,0,1,48.55,365.63ZM43.9,353.31l.33.73a4.81,4.81,0,0,1-.14,1.12,3.73,3.73,0,0,1-.9,1.55,5,5,0,0,1-2.41,1.19A17.17,17.17,0,0,0,43.9,353.31Zm26.19,26.8c-.72,3.89-2.74,7.14-4.27,10.72a16.51,16.51,0,0,0-.94,2.75c-.23,1-.25,2.26-1,3.05a2.64,2.64,0,0,1-4.23-1.08.39.39,0,0,0-.75.21,2.43,2.43,0,0,1-1.15,2.85,5,5,0,0,1-3.56.36,25.57,25.57,0,0,1-5.78-1.89,28.69,28.69,0,0,1-9.79-6.93,15.12,15.12,0,0,1-4.17-10.74,9.58,9.58,0,0,1,5.77-8.65,8.09,8.09,0,0,1,5.63-.2c2.11.75,3.53,2.48,4.8,4.23a.24.24,0,0,0,.36,0,.38.38,0,0,0,.31-.36,9.55,9.55,0,0,1,6.41-8.36,9.25,9.25,0,0,1,10.12,3.15A13.65,13.65,0,0,1,70.09,380.11Z"/><path class="cls-40" d="M38.18,373.31a5.53,5.53,0,0,0,.82-.54c.08-.08,0-.24-.12-.2a4.86,4.86,0,0,0-.85.5C37.87,373.16,38,373.41,38.18,373.31Z"/><path class="cls-40" d="M37.57,374.27a15,15,0,0,1,1.53-.82.14.14,0,0,0-.07-.25,3,3,0,0,0-1.65.76C37.21,374.1,37.38,374.41,37.57,374.27Z"/><path class="cls-40" d="M36.74,375.66c.84-.57,1.79-1,2.6-1.63.11-.08,0-.28-.1-.23a10.47,10.47,0,0,0-2.68,1.57C36.38,375.49,36.55,375.79,36.74,375.66Z"/><path class="cls-40" d="M36.24,377c.95-.68,2-1.2,2.93-1.89.11-.08,0-.29-.1-.24a11.78,11.78,0,0,0-3,1.83C35.88,376.87,36.06,377.17,36.24,377Z"/><path class="cls-40" d="M36.18,378c.87-.62,1.88-1,2.74-1.66.15-.11.06-.39-.14-.33A11,11,0,0,0,36,377.71C35.81,377.84,36,378.15,36.18,378Z"/><path class="cls-40" d="M36.45,379.24c.89-.78,1.92-1.31,2.84-2,.12-.1.06-.33-.12-.27a9.11,9.11,0,0,0-3,2C35.94,379.13,36.25,379.43,36.45,379.24Z"/><path class="cls-40" d="M36.58,380.43c.8-.68,1.75-1.24,2.5-2,.15-.15,0-.35-.22-.27a11.32,11.32,0,0,0-2.59,1.94C36.06,380.31,36.37,380.61,36.58,380.43Z"/><path class="cls-40" d="M36.9,381.73a25,25,0,0,1,2.15-1.85.15.15,0,0,0-.15-.25,6.64,6.64,0,0,0-2.31,1.81C36.41,381.64,36.72,381.93,36.9,381.73Z"/><path class="cls-40" d="M37.09,383a6.75,6.75,0,0,1,.85-.84c.3-.26.66-.45.94-.73.11-.12,0-.34-.17-.28a5.09,5.09,0,0,0-1.93,1.55C36.61,382.86,36.91,383.15,37.09,383Z"/><path class="cls-40" d="M39.36,382.44a.12.12,0,0,0-.12-.2,4.92,4.92,0,0,0-2,1.44.21.21,0,0,0,.3.29,10.06,10.06,0,0,1,.92-.81A4.5,4.5,0,0,0,39.36,382.44Z"/><path class="cls-40" d="M38.24,384.86a10.54,10.54,0,0,0,1-1c.08-.11-.06-.25-.17-.22a2.91,2.91,0,0,0-1.17.89C37.73,384.76,38.05,385.06,38.24,384.86Z"/><path class="cls-40" d="M38.67,385.94l.62-.5a2.86,2.86,0,0,0,.54-.5c.09-.14-.09-.25-.21-.2a2.8,2.8,0,0,0-.59.45l-.61.52C38.26,385.85,38.5,386.07,38.67,385.94Z"/><path class="cls-40" d="M39.91,386.09c.06-.07,0-.21-.09-.2a1.93,1.93,0,0,0-1.12.77c-.12.15.08.36.22.21a4.15,4.15,0,0,1,.51-.43A2.12,2.12,0,0,0,39.91,386.09Z"/><path class="cls-40" d="M40.08,386.68a3,3,0,0,0-.85.58c-.2.16,0,.5.21.34a3.06,3.06,0,0,0,.8-.72A.14.14,0,0,0,40.08,386.68Z"/><path class="cls-40" d="M40,388.47a2.3,2.3,0,0,0,.53-.5.14.14,0,0,0-.16-.2,2.18,2.18,0,0,0-.64.37A.21.21,0,1,0,40,388.47Z"/><path class="cls-40" d="M41.31,388.59a.18.18,0,0,0-.21-.25,1.49,1.49,0,0,0-.51.33l-.49.41c-.23.19.11.52.34.32l.47-.39A1.45,1.45,0,0,0,41.31,388.59Z"/><path class="cls-40" d="M41.87,389.72c0-.08-.06-.15-.14-.13a1.92,1.92,0,0,0-.78.55c-.2.17.1.46.3.28A1.9,1.9,0,0,0,41.87,389.72Z"/><path class="cls-40" d="M42.6,390.36a1.88,1.88,0,0,0-.69.35c-.23.15,0,.51.22.37a2,2,0,0,0,.62-.47A.17.17,0,0,0,42.6,390.36Z"/><path class="cls-40" d="M43.35,391a1.93,1.93,0,0,0-.66.48c-.23.19.11.52.34.32a1.79,1.79,0,0,0,.53-.53A.19.19,0,0,0,43.35,391Z"/><path class="cls-40" d="M44.34,391.62a.15.15,0,0,0-.1-.17c-.24,0-.42.11-.62.22s0,.52.23.38S44.25,391.84,44.34,391.62Z"/><path class="cls-40" d="M44.63,392.2a1,1,0,0,0-.59.41c-.15.19.13.46.28.27a4.67,4.67,0,0,0,.44-.45A.15.15,0,0,0,44.63,392.2Z"/><path class="cls-40" d="M45.22,392.63c-.25,0-.49.21-.65.38s.11.48.3.29.37-.25.5-.43S45.33,392.64,45.22,392.63Z"/><path class="cls-40" d="M46,393.39c-.3-.08-.58.21-.75.43s.13.53.32.31.43-.3.53-.51A.15.15,0,0,0,46,393.39Z"/><path class="cls-40" d="M46.49,394.11a.88.88,0,0,0-.34.21c-.22.16,0,.53.22.36a1,1,0,0,0,.33-.31A.19.19,0,0,0,46.49,394.11Z"/><path class="cls-40" d="M47.55,394.7c-.12-.27-.51,0-.68,0s-.06.53.19.43S47.67,395,47.55,394.7Z"/><path class="cls-40" d="M48,395.12a2.67,2.67,0,0,1-.26.09c-.27,0-.26.47,0,.43s.4-.1.45-.32A.16.16,0,0,0,48,395.12Z"/><path class="cls-40" d="M48.62,395.37a.28.28,0,0,0,.15.54c.19-.06.38-.09.49-.28a.21.21,0,0,0-.09-.28A.63.63,0,0,0,48.62,395.37Z"/><path class="cls-40" d="M30,325.8a44.71,44.71,0,0,0-4.37-8.51c-.62-.94-1.66-1.94-2.9-1.5s-1.2,1.75-1,2.76c.57,2.93,2.29,5.66,3.91,8.13,1.32,2,3.19,5.32,6.09,4.77a2.52,2.52,0,0,0,2-2.1,6.2,6.2,0,0,0-.68-3.3,70.79,70.79,0,0,0-4.36-8.6c-.83-1.4-1.72-2.76-2.65-4.1a19.87,19.87,0,0,0-2.82-3.45c-1.73-1.54-4.84-2.27-6.4-.06s0,5.52.93,7.7a45.2,45.2,0,0,0,5.44,9.25c.41.54,1.28-.07.87-.61a42.1,42.1,0,0,1-4.23-6.71c-.57-1.12-1.09-2.28-1.56-3.45a13.79,13.79,0,0,1-1-3.06,3.29,3.29,0,0,1,.49-2.65,2.83,2.83,0,0,1,2.93-.67,6.27,6.27,0,0,1,2.91,2.25c.81,1,1.55,2.06,2.27,3.13a65.16,65.16,0,0,1,4,6.78c.63,1.19,1.21,2.41,1.76,3.64a10.23,10.23,0,0,1,1.06,3.08,1.66,1.66,0,0,1-1.63,2c-1.29,0-2.25-1-3-1.93a41.37,41.37,0,0,1-4.24-6.7,12.22,12.22,0,0,1-1.34-3.83c-.08-.63,0-1.47.83-1.4s1.19.78,1.56,1.34a64.42,64.42,0,0,1,4.45,8c.16.34.69.16.55-.2Z"/><path class="cls-40" d="M14.05,225.23a11.36,11.36,0,0,0-3.93,5.15c-.1.34.35.46.53.22.66-.86,1.18-1.81,1.85-2.66a26.83,26.83,0,0,1,2-2.22C14.87,225.39,14.39,225,14.05,225.23Z"/><path class="cls-40" d="M6.61,238.08a34.42,34.42,0,0,0-2.05,6.15c-.06.3.36.52.52.22a35.29,35.29,0,0,0,2.28-6.16C7.52,237.8,6.79,237.62,6.61,238.08Z"/><path class="cls-40" d="M2.91,252.47c-1.59,2.4-2.54,5.72-1.67,8.57a.34.34,0,0,0,.67-.09,25.26,25.26,0,0,1,1.52-8.26C3.56,252.38,3.08,252.22,2.91,252.47Z"/><path class="cls-40" d="M1.26,266.33c-1.15,2.18-1.91,5.28-.48,7.51.18.28.7.2.67-.18-.23-2.49-.7-4.57.44-7C2.09,266.28,1.48,265.91,1.26,266.33Z"/><path class="cls-40" d="M3,286.92c-.53-2.25-1.21-4.2-1-6.56,0-.54-.77-.52-.83,0-.27,2.23-.17,4.93,1.16,6.85A.38.38,0,0,0,3,286.92Z"/><path class="cls-40" d="M8,297.31c-.41-.59-1-1-1.39-1.63a5.45,5.45,0,0,1-.9-2.1c-.08-.41-.77-.32-.73.09.17,1.55.94,3.7,2.64,4.13C7.86,297.87,8.15,297.56,8,297.31Z"/><path class="cls-40" d="M48.73,332.25c-.42-.15-.86-.2-1.28-.38a4.21,4.21,0,0,1-1.29-.77c-.35-.31-.85.18-.52.51a3.49,3.49,0,0,0,3.09,1.13A.26.26,0,0,0,48.73,332.25Z"/><path class="cls-40" d="M62.05,338.24c-.41-.15-.89-.15-1.32-.29a4.22,4.22,0,0,1-1.33-.69.33.33,0,0,0-.47.46c.72.82,2.09,1.63,3.2,1.11C62.41,338.7,62.29,338.33,62.05,338.24Z"/><path class="cls-40" d="M72.24,345.15c-.48-1.4-2.2-2.19-3.53-2.47a.33.33,0,0,0-.17.63,7.19,7.19,0,0,1,1.79,1c.52.37.93.88,1.45,1.23A.32.32,0,0,0,72.24,345.15Z"/><path class="cls-40" d="M79.43,352.92a13.3,13.3,0,0,0-2.22-3.42c-.25-.34-.82,0-.59.35a13.24,13.24,0,0,0,2.27,3.39C79.12,353.43,79.53,353.25,79.43,352.92Z"/><path class="cls-40" d="M81.15,357.42a.33.33,0,0,0-.66,0,11.2,11.2,0,0,0,0,3.42.34.34,0,0,0,.64,0A11.2,11.2,0,0,0,81.15,357.42Z"/><path class="cls-40" d="M80.57,365.59a10.38,10.38,0,0,0-1.16,3.47c0,.32.41.39.57.16a10.57,10.57,0,0,0,1.13-3.4C81.17,365.51,80.72,365.27,80.57,365.59Z"/><path class="cls-40" d="M78.5,370.91a1.22,1.22,0,0,0-.84,1.71c.26.49,1.1.15.91-.38-.07-.19-.12-.5.13-.6A.38.38,0,0,0,78.5,370.91Z"/><path class="cls-40" d="M76.93,189.61a14,14,0,0,0-4,.67c-.36.09-.3.7.09.67a14.13,14.13,0,0,0,3.94-.71A.32.32,0,0,0,76.93,189.61Z"/><path class="cls-40" d="M85.63,185.81c-.6.27-1.12.73-1.73,1a7.8,7.8,0,0,1-2.06.63c-.39.07-.3.75.09.7,1.41-.18,3.28-.68,4.15-1.9C86.29,186,85.9,185.68,85.63,185.81Z"/><path class="cls-40" d="M93.84,180a.29.29,0,0,0-.53-.14c-.36.57-.55,1.23-1,1.79a4.88,4.88,0,0,1-1.68,1.48c-.36.2,0,.7.32.55C92.31,183.11,94,181.6,93.84,180Z"/><path class="cls-40" d="M99,170.46a24.27,24.27,0,0,1-2.42,4.9c-.22.3.28.69.52.4a9.86,9.86,0,0,0,2.45-5.15C99.55,170.33,99.1,170.19,99,170.46Z"/><path class="cls-40" d="M102.64,159.85a12.25,12.25,0,0,0-1.17,4,.35.35,0,0,0,.67.18,12.16,12.16,0,0,0,1.19-4A.37.37,0,0,0,102.64,159.85Z"/><path class="cls-40" d="M104.5,149.52c0-.3-.48-.51-.63-.17a13.33,13.33,0,0,0-.77,4c0,.43.65.51.75.1A13.14,13.14,0,0,0,104.5,149.52Z"/><path class="cls-40" d="M104,142.25a12.28,12.28,0,0,0,.4-1.67.4.4,0,0,0-.68-.28c-1,1-.85,3.06-.52,4.32a.43.43,0,0,0,.83-.23A5.32,5.32,0,0,1,104,142.25Z"/><path class="cls-40" d="M81.8,65.67a17,17,0,0,0-1.38,5,.28.28,0,0,0,.53.15,16.93,16.93,0,0,0,1.42-5A.31.31,0,0,0,81.8,65.67Z"/><path class="cls-40" d="M87.78,55.57a9.59,9.59,0,0,0-1.48,1.81c-.49.68-1,1.37-1.4,2.09a.3.3,0,0,0,.46.36c.56-.63,1.09-1.27,1.61-1.94A9.7,9.7,0,0,0,88.29,56,.33.33,0,0,0,87.78,55.57Z"/><path class="cls-40" d="M97.29,48.88a19.88,19.88,0,0,0-3.88,2.89c-.23.2.06.57.31.42a20.14,20.14,0,0,0,3.93-2.83A.3.3,0,0,0,97.29,48.88Z"/><path class="cls-40" d="M105,46.86a.32.32,0,0,0-.3-.23c-.39,0-.61.4-.79.72s-.39.73-.59,1.1.26.67.5.38.52-.63.77-.95S105.09,47.23,105,46.86Z"/><path d="M388.33,108.91a5.88,5.88,0,0,0-.17-1.2.28.28,0,0,0-.23-.22,38.14,38.14,0,0,0-11.07,1.73.28.28,0,0,0-.15.27c.08,1.57,1.51,1.54,2.68,1.22l2.25,15.17c.38,2.55.75,5.1,1.13,7.64l.57,3.82a19.62,19.62,0,0,0,.54,2.85c.43,1.44,1.37,2.95,3.05,3a3.78,3.78,0,0,0,3.4-3c.54-2.07,0-4.4-.24-6.48-.3-2.5-.65-5-1-7.48-.87-5.57-1.94-11.16-3.2-16.66A8.68,8.68,0,0,0,388.33,108.91Zm-4.16.91c.39-.06.77-.15,1.17-.2l0,.16a1.22,1.22,0,0,0-.34.1.11.11,0,0,0,0,.21,1.63,1.63,0,0,0,.38,0,217.35,217.35,0,0,1,4.49,26.69c.19,2,.18,4.54-1.87,5.59s-3.33-.92-3.77-2.63a58.18,58.18,0,0,1-1-6.28l-1.06-7.12L380,111.1a6.5,6.5,0,0,0,1.32-.31c.12-.05.05-.19-.05-.19a5.9,5.9,0,0,0-1.31.23l-.05-.32a5.73,5.73,0,0,0,.93-.22.1.1,0,0,0,0-.18,7.85,7.85,0,0,0-1.39.17c-.86.21-2,.37-2.16-.65A37.35,37.35,0,0,1,387.68,108c0,.25.08.51.11.76-.74.24-3.33.66-3.68.85A.11.11,0,0,0,384.17,109.82Z"/><path d="M382,118a.25.25,0,0,0-.4.24c.54,3.56,1.17,7.11,1.75,10.67.28,1.74.56,3.47.85,5.21s.43,3.38.85,5a3.2,3.2,0,0,0,1.78,2.3,1.85,1.85,0,0,0,2.29-1.48,5.35,5.35,0,0,0,.05-1.74c-.08-.92-.18-1.83-.28-2.75-.18-1.76-.38-3.52-.6-5.27q-.77-6.06-1.81-12.08a.26.26,0,0,0-.29-.21A8.86,8.86,0,0,1,382,118Zm6.54,19.11a14.39,14.39,0,0,1,.15,2.17c-.05.81-.53,1.85-1.51,1.69-1.27-.21-1.62-1.87-1.79-2.9-.53-3.12-1-6.25-1.54-9.37-.56-3.4-1.07-6.81-1.69-10.2a8.39,8.39,0,0,0,3.86,0C387.08,124.6,387.93,130.83,388.54,137.07Z"/><path d="M382.8,114.8a1.27,1.27,0,0,0,.57,1.47,1.07,1.07,0,0,0,1.36-.66,1.49,1.49,0,0,0-.77-1.74A.89.89,0,0,0,382.8,114.8Zm1.6.74a.75.75,0,0,1-.91.44,1,1,0,0,1-.48-1l0,0c.21-.35.33-1,.88-.67A1.11,1.11,0,0,1,384.4,115.54Z"/><path d="M383.39,112.69a1,1,0,0,0-.51-1.06c-.32-.15-.82.05-.8.42a.82.82,0,0,0,.36,1A.63.63,0,0,0,383.39,112.69Zm-1.09-.45a.13.13,0,0,0,.08-.08c.18-.62.93.08.69.51-.11.21-.4.16-.57,0A.57.57,0,0,1,382.3,112.24Z"/><path d="M384.39,120.75a.54.54,0,0,0,.58-.52.51.51,0,0,0-.45-.57.54.54,0,0,0-.58.38.09.09,0,0,0,0,.06A.53.53,0,0,0,384.39,120.75Zm.29-.57c0,.13-.09.27-.23.26s-.27-.16-.3-.31,0,0,0,0C384.27,119.88,384.68,119.87,384.68,120.18Z"/><path d="M385.37,122.58a1.1,1.1,0,0,0-1.13,1,1,1,0,0,0,1,1.1,1,1,0,0,0,1-1,1.14,1.14,0,0,0-.77-1.09A.19.19,0,0,0,385.37,122.58Zm-.2,1.79a.75.75,0,0,1-.61-.81c0-.43.43-.62.81-.68h0C386.16,123.13,386.12,124.49,385.17,124.37Z"/><path d="M385,126.46a.58.58,0,0,0-.39-.77.49.49,0,0,0-.39.08.27.27,0,0,0-.12.31.48.48,0,0,0,.08.63A.55.55,0,0,0,385,126.46Zm-.62,0a.22.22,0,0,1-.06-.31l0,0c.07-.08.08-.15.2-.13s.2.2.17.32A.24.24,0,0,1,384.37,126.47Z"/><path d="M386.34,128.16c-.42,0-1,.37-.83.84h0a.88.88,0,0,0,.52,1.14c.57.19,1.08-.36,1.12-.89A1,1,0,0,0,386.34,128.16Zm.5,1c0,.35-.3.85-.72.69s-.42-.66-.31-1a.52.52,0,0,1,.49-.34C386.65,128.48,386.84,128.85,386.84,129.16Z"/><path d="M385.9,132.63a.44.44,0,0,0-.26.26h0a.08.08,0,0,0-.05.08.77.77,0,0,0,.08.5.47.47,0,0,0,.38.21c.33,0,.51-.4.46-.69A.45.45,0,0,0,385.9,132.63Zm.13.76a.23.23,0,0,1-.19-.19s.05,0,.06,0,0-.18.11-.23.18,0,.19.14S386.17,133.4,386,133.39Z"/><path d="M375.85,197.93c1.37-1.27,2.75-2.51,4.08-3.82l.11,0a10.8,10.8,0,0,0,7.11-2.62,36.42,36.42,0,0,0,3.23-3c1-1,1.79-1.92,1.42-3.37s-1-2.61-.77-4.24a6.09,6.09,0,0,1,2.33-3.88,6,6,0,0,1,8.21,1.62.47.47,0,0,0,.65.05l1.84-1.59c.2-.17.57-.66.84-.72s.53.07.84.15a5.52,5.52,0,0,0,3-.18c2.49-.81,4.1-3,5.57-5a.48.48,0,0,0,0-.57L407.7,161a.47.47,0,0,0-.65-.05l-3.35,2.3a41.36,41.36,0,0,0-3.45,2.38c-.61.51-1.2,1.54-.82,2.23l-15.1,10.75c-2.5,1.78-5.13,3.47-7.54,5.38-1.2,1-2.19,2.76-1.13,4l-5.42,3.85a.47.47,0,0,0,0,.73,22.65,22.65,0,0,1,5,5.25A.45.45,0,0,0,375.85,197.93Zm.83-9.48a.46.46,0,0,0,0-.73c-2.33-1.68,3.28-4.82,4.36-5.59l6.55-4.66,12.91-9.19,0,0a47.51,47.51,0,0,0,4.85,6.41c.12.14.39,0,.29-.19a48.4,48.4,0,0,0-4.94-6.87h0a.69.69,0,0,0-.41-.49h0a3.81,3.81,0,0,1,.79-.83c.77,1.11,1.63,2.16,2.43,3.25s1.68,2.41,2.64,3.51a.25.25,0,0,0,.41-.26,25.64,25.64,0,0,0-2.36-3.54,36.91,36.91,0,0,0-2.68-3.31h0l2-1.4,3.68-2.52,6.17,9.1c-1.89,2.61-4.76,5.94-8.32,4.26a.44.44,0,0,0-.45.08L402,177.7a7,7,0,0,0-6.74-2.46,6.82,6.82,0,0,0-4.87,8.79c.38,1.08.92,1.95.13,3a15,15,0,0,1-1.95,2c-2.36,2.25-5,4.31-8.46,4.18a.44.44,0,0,0-.41.23l-.94.78c-1.41-1.42-2.81-2.82-4.18-4.27Zm-4.13,2.93a15,15,0,0,0,3.66,3.28c.2.11.47-.14.29-.32-1.14-1.12-2.41-2.13-3.59-3.21l1.24-.88a14.69,14.69,0,0,0,4.3,4.23c-.95.81-1.87,1.63-2.8,2.45a22.37,22.37,0,0,0-4.35-4.66Z"/><path d="M394.83,177.34c-2.06,1-4.14,3.28-3.2,5.7s3.87,3,6.19,2.54a.38.38,0,0,0,.31,0l.12-.07.09,0a.21.21,0,0,0,.14-.12c2-1.35,3.45-3.64,2.38-6.1S397.13,176.26,394.83,177.34Zm2.84,7.5a.38.38,0,0,0-.12.17c-1.68,0-3.47-.06-4.64-1.47-1.64-2,.18-4.27,2-5.24s4.08-.92,5.07,1.18C401.08,181.81,399.43,183.55,397.67,184.84Z"/><path d="M401.12,210.27a38.7,38.7,0,0,0,1.9-26.92c-.11-.39-.76-.55-.89-.06a5.3,5.3,0,0,1-6.67,3.71.45.45,0,0,0-.57.29.36.36,0,0,0-.47.46c2.32,6.8-2.33,12.71-6.6,17.51a14.37,14.37,0,0,0-21.15-.39.47.47,0,0,0,.14.79A221.25,221.25,0,0,0,405.49,220a.47.47,0,0,0,.59-.28A7.84,7.84,0,0,0,401.12,210.27Zm-33.37-5.18a13.39,13.39,0,0,1,10-3.73,6.17,6.17,0,0,0-3.59,3.41.23.23,0,0,0,.4.21,10.55,10.55,0,0,1,2.14-2.38,7.91,7.91,0,0,1,2.27-1.13,13.4,13.4,0,0,1,8.51,4.78.47.47,0,0,0,.73,0c4-4.48,9-10.56,7.47-16.92a6,6,0,0,0,5.3-.43c.2-.14,0-.4-.21-.33a7.72,7.72,0,0,1-5.18.42,8.22,8.22,0,0,0-.35-1.06,6.3,6.3,0,0,0,7.27-3,37.88,37.88,0,0,1-2.44,25.49.46.46,0,0,0,.28.59,7,7,0,0,1,5.11,6.43c-.77-.28-1.62-.32-2.41-.54s-1.74-.58-2.59-.9c-.27-.11-.5.31-.24.45a14.26,14.26,0,0,0,2.8,1.16,7,7,0,0,0,2.43.47,7,7,0,0,1-.12.92A220.14,220.14,0,0,1,367.75,205.09Z"/><path d="M398.74,181.37a2.38,2.38,0,0,1-1.81,2.13,2.48,2.48,0,0,1-2.52-1.3c-.62-1.19.44-2.43,1.45-2.92a2.31,2.31,0,0,1,2.94.59.1.1,0,0,0,.17-.08c-.17-1.31-2.05-1.35-3-1-1.13.41-2.41,1.7-2.25,3a3,3,0,0,0,3,2.25,2.67,2.67,0,0,0,2.52-2.59C399.2,181.22,398.8,181.09,398.74,181.37Z"/><path d="M381.21,191.9c1.5,0,2.86-1.19,4-2,.15-.1,0-.33-.17-.26-.83.4-1.51,1.05-2.34,1.46-1.42.71-3.22.5-3.61-1.3a.14.14,0,0,0-.27.06A2.36,2.36,0,0,0,381.21,191.9Z"/><path d="M387,188.56l.94-.7a2.75,2.75,0,0,0,.78-.74.19.19,0,0,0-.24-.28,3,3,0,0,0-.88.62c-.3.25-.6.5-.89.76S386.73,188.73,387,188.56Z"/><path d="M402.68,176.41a10.26,10.26,0,0,0,1.45-1.71.17.17,0,0,0-.25-.22,10.33,10.33,0,0,0-1.52,1.71C402.19,176.38,402.51,176.6,402.68,176.41Z"/><path d="M374.38,206a.2.2,0,0,0-.29-.27,1.11,1.11,0,0,0-.35,1.26c.12.3.52.12.5-.16A1.48,1.48,0,0,1,374.38,206Z"/><path d="M397.2,215c-2.92-1.25-5.91-2.35-8.88-3.46s-5.92-2.32-8.95-3.26a.2.2,0,0,0-.13.37c2.9,1.29,5.92,2.33,8.88,3.46s5.93,2.27,8.95,3.25A.19.19,0,0,0,397.2,215Z"/><path d="M388.4,34.92a.28.28,0,0,0-.38,0c-.11.11-.22.22-.34.32s0,0-.05,0c-.2.17-.41.34-.61.54,0,0,0,0,0,0l-1-1.26a.27.27,0,0,0-.25-.08,15.28,15.28,0,0,0-12.07,12.91,1.3,1.3,0,0,0-.78.09,15.79,15.79,0,0,0-2.19.86,20.53,20.53,0,0,0-4.15,2.7,51.54,51.54,0,0,0-7.12,7.64.27.27,0,0,0,0,.38l1.05,1a.18.18,0,0,0-.07,0c-.28.29-.53.61-.8.92a.11.11,0,0,0-.13.15c-.09.1-.17.2-.26.29a.24.24,0,0,0,0,.34c6.4,6.18,12.93,12.23,18.25,19.41.16.21.43,0,.46-.18a10.21,10.21,0,0,1,1-2.81,21.69,21.69,0,0,1,2.95-4.52,14.76,14.76,0,0,1,4.83-4,9.55,9.55,0,0,1,5.86-.75.28.28,0,0,0,.34-.32c-.51-2.75,1.11-5.41,2.75-7.48A40.14,40.14,0,0,1,402,55.12c.91-.74,1.85-1.45,2.77-2.17a.27.27,0,0,0,0-.38C398.48,47.45,394.14,40.54,388.4,34.92ZM382,36.37a14.24,14.24,0,0,1,3.3-1.23c.44-.1.42,0,.7.33l.74.93,1.57,1.94q3,3.72,6.24,7.31,1.85,2.07,3.73,4.09a19.49,19.49,0,0,0,1.49,1.53c-3-.2-5.76,2.38-7.47,4.54a12.74,12.74,0,0,0-3.06,9.12c-1.15-1.29-2.36-2.53-3.53-3.79q-2-2.19-4-4.41-3.87-4.36-7.55-8.9A14.6,14.6,0,0,1,382,36.37ZM376.8,76.84a9,9,0,0,1-.05-4.31,10.06,10.06,0,0,1,2.48-4.22c2.44-2.54,6.42-4.37,9.67-2.49A14.84,14.84,0,0,0,381,68.1a9.18,9.18,0,0,0-4.12,7.6c0,.06.1.08.11,0a15.57,15.57,0,0,1,1.18-4.23,7.55,7.55,0,0,1,3.14-3.31,14.33,14.33,0,0,1,7.25-2.07,13.21,13.21,0,0,0-7.43,3A12.79,12.79,0,0,0,377,77.07ZM400.85,52a20,20,0,0,0-11,13.25c-.52-3.18.79-6.35,2.7-8.87S397.49,51.07,400.85,52Zm-35,.34a23.71,23.71,0,0,1,3.58-2.71,17.38,17.38,0,0,1,2-1c.41-.18,1.83-1,2.23-.55l0,0q3.73,4.57,7.66,9c2.52,2.83,5.05,5.75,7.83,8.33-3.42-2-7.68-.2-10.27,2.48-1.93,2-3.55,5.22-2.86,8.07A193.78,193.78,0,0,0,360,58.88,58.06,58.06,0,0,1,365.88,52.35Zm-5.14,8a179.74,179.74,0,0,1,16,17.24.22.22,0,0,0,.27.07.19.19,0,0,0,.29-.11,13.08,13.08,0,0,1,4.12-8,12.76,12.76,0,0,1,8.45-3,.29.29,0,0,0,.26-.2,19.5,19.5,0,0,1,11.66-14.21.26.26,0,0,0,0-.48,4.06,4.06,0,0,1-2.13-1.34c-.68-.7-1.34-1.43-2-2.14q-2-2.19-4-4.41c-2.17-2.48-4.27-5-6.33-7.56a.24.24,0,0,0,.08-.06c.17-.17.35-.32.54-.48q3.66,4.35,7.43,8.62c2.52,2.86,4.88,6,7.79,8.44a23.76,23.76,0,0,0-8.28,7c-1.69,2.29-3.74,5.61-2.6,8.54-3.1-1.35-6.49,0-8.93,2.09a22.75,22.75,0,0,0-3.81,4.21,10.72,10.72,0,0,0-2.12,4.68q-4-4.86-8.47-9.35c-2.91-2.95-5.86-5.91-9-8.65.25-.3.48-.61.74-.9A.18.18,0,0,0,360.74,60.36Zm26.09,8.76a14.54,14.54,0,0,0-5.17,4.07,22,22,0,0,0-3.18,4.8,13.39,13.39,0,0,0-1,2.46c-5.22-6.93-11.52-12.87-17.81-18.8l.09-.11c2.92,2.95,6,5.71,8.95,8.64a117.78,117.78,0,0,1,8.66,9.49c.09.11.25,0,.16-.15v0A15.59,15.59,0,0,1,379.61,75a23.42,23.42,0,0,1,3.46-3.92c2.1-1.91,5-3.4,7.86-2.75A10.72,10.72,0,0,0,386.83,69.12ZM398.5,57.4A22.17,22.17,0,0,0,393,64.54a8.06,8.06,0,0,0-.69,3c-.45-2.86,1.32-5.7,3-7.92a23.35,23.35,0,0,1,8-6.67l.05-.06c.13,0,.27-.12.15-.21a33.76,33.76,0,0,1-4-4.08q-2-2.25-3.91-4.51-3.7-4.31-7.49-8.54l.12-.12c5.58,5.52,9.86,12.23,15.92,17.28C402.19,54.24,400.28,55.74,398.5,57.4Z"/><path d="M370,68.47a.13.13,0,0,0,.19-.18c-1.37-1.63-2.92-3.13-4.39-4.67S363,60.44,361.35,59a.11.11,0,0,0-.16.16c1.34,1.65,2.92,3.15,4.38,4.68S368.48,67,370,68.47Z"/><path d="M374.33,71c-1.61-1.61-3.28-3.14-4.86-4.79s-3-3.39-4.57-5c-.07-.07-.21,0-.15.11a51.75,51.75,0,0,0,4.39,5.08,55.49,55.49,0,0,0,5,4.83C374.26,71.32,374.46,71.15,374.33,71Z"/><path d="M395.26,47.3c-1.44-1.64-3-3.16-4.45-4.82s-2.72-3.43-4.08-5.14c-.09-.12-.29,0-.22.15a43.62,43.62,0,0,0,3.93,5.16,37.83,37.83,0,0,0,4.66,4.81C395.21,47.54,395.36,47.41,395.26,47.3Z"/><path d="M378.78,69.41a18,18,0,0,1,2.06-1.83,10.35,10.35,0,0,1,2.28-1.2,11.31,11.31,0,0,1,2.5-.63,14.13,14.13,0,0,1,2.76,0c.11,0,.14-.17,0-.19a9.59,9.59,0,0,0-5.37.57,9.18,9.18,0,0,0-4.35,3.18A.05.05,0,0,0,378.78,69.41Z"/><path d="M396,53.81a16.95,16.95,0,0,0-6.15,10.85.07.07,0,0,0,.14,0,21.7,21.7,0,0,1,2.1-5.91,22.07,22.07,0,0,1,4-4.82C396.14,53.89,396.05,53.76,396,53.81Z"/><path d="M399.28,52.32a11.24,11.24,0,0,0-5,4c0,.06.05.14.1.08a14.56,14.56,0,0,1,2.17-2.2,19.85,19.85,0,0,1,2.8-1.75C399.43,52.43,399.38,52.28,399.28,52.32Z"/><path d="M375.42,73.76a26.83,26.83,0,0,0-3.55-3.27s-.09,0-.06.07c1.19,1.09,2.33,2.21,3.46,3.35C375.36,74,375.52,73.87,375.42,73.76Z"/><path d="M385.81,37.33a9.62,9.62,0,0,0-1-1.22s-.14,0-.1.08a9.36,9.36,0,0,0,1,1.22C385.76,37.46,385.86,37.39,385.81,37.33Z"/><path d="M346.73,119.43c-.39-5-.87-8.27-2.93-12.93a25.47,25.47,0,0,0-11-12,24.15,24.15,0,0,0-12.25-2.91h0a26.89,26.89,0,0,0-18.09,7.86c-7.64,7.63-10.37,19.56-6.23,29.61a25.46,25.46,0,0,0,41.88,8.56A28.29,28.29,0,0,0,346.73,119.43Zm-4.39-14c2.29,4.3,3,9.1,3.59,13.87a18.29,18.29,0,0,0-4.74-5.39,35.5,35.5,0,0,0-9.41-5.48,66.78,66.78,0,0,0-14.12-3.91,14.21,14.21,0,0,1,6.27-4.8,25.3,25.3,0,0,1,7.49-1.63c2.23-.16,4.78,0,6.58,1.46A25.64,25.64,0,0,1,342.34,105.41Zm-21.53-13a23,23,0,0,1,8.51,1.42,23.63,23.63,0,0,1,6.64,3.8c-2.8-1-6.35-.35-9,.27-4,.91-7.94,2.94-10.19,6.43a47.43,47.43,0,0,0-6.5-.44,33,33,0,0,1,1.93-3A35.61,35.61,0,0,1,320.81,92.45Zm-15.4,5.61.35-.28c0,.65.09,1.3.15,1.94,0,.17.28.24.32,0a5.94,5.94,0,0,0,0-2.3,26.2,26.2,0,0,1,13-4.92,34.63,34.63,0,0,0-10,11.4,37.52,37.52,0,0,0-4,.34A11.22,11.22,0,0,0,305.41,98.06Zm-4.66,4.72a25.4,25.4,0,0,1,3.95-4.14,10.68,10.68,0,0,1-.4,5.78,21.59,21.59,0,0,0-5.79,1.82A26.52,26.52,0,0,1,300.75,102.78ZM298.1,107A44.34,44.34,0,0,1,304,105.3a39.22,39.22,0,0,1-3.65,6.49,41.44,41.44,0,0,0-3.28,5.9,26.93,26.93,0,0,0-1.66,4.51A26.91,26.91,0,0,1,298.1,107Zm.24,24.41a25.11,25.11,0,0,1-2.14-5.2c.32-1.07.61-2.17.84-3.24,0-.17-.21-.3-.29-.13a11.31,11.31,0,0,0-.79,2.47c-.14-.57-.26-1.13-.36-1.7.92-2.12,1.49-4.37,2.52-6.46a60.85,60.85,0,0,1,3.78-6.36,29.14,29.14,0,0,0,3-5.69,28.92,28.92,0,0,1,3-.37l.91,0a38.34,38.34,0,0,0-3.26,26.48,32.87,32.87,0,0,0,4.87,11.21A25.12,25.12,0,0,1,298.34,131.44ZM324.53,144a24.23,24.23,0,0,1-13.19-1.19,49,49,0,0,1-4.61-10.39,37.08,37.08,0,0,1,3.07-27.7,45.45,45.45,0,0,1,6.49.43c-.12.22-.23.44-.34.66-1.89,4.14-.5,8.7,1.53,12.51s4.78,7,7.37,10.3c3,3.9,5.64,7.88,6.79,12.74A23.27,23.27,0,0,1,324.53,144Zm21.07-23.5a24.48,24.48,0,0,1-6.9,15.4,38.45,38.45,0,0,1-4.13,3.56l0-.11c-.05-.31-.11-.62-.17-.93s-.34-.14-.32,0l.12,1c0,.09,0,.18,0,.26-.18.13-.37.27-.56.39-.39-3.26-1-6.58-3.31-9.06-.06-.07-.16,0-.1.1,2.33,2.49,2.79,5.89,3.13,9.15-.31.21-.62.41-.94.6-1.27-7.48-7.49-13.16-11.69-19.09-2.35-3.32-4.68-7.26-4.85-11.43a9.28,9.28,0,0,1,1.3-5.11l1.5.26c7.08,1.3,14.49,3.47,20.38,7.74A33.18,33.18,0,0,1,345.6,120.48Z"/><path d="M313.38,113.54a15.24,15.24,0,0,1,.56-6.47c0-.11-.12-.14-.16,0-1.57,4-1.13,9.34,1.67,12.76.11.14.32,0,.24-.18A16.89,16.89,0,0,1,313.38,113.54Z"/><path d="M317.23,122.12c-.15-.21-.5,0-.34.2a10.82,10.82,0,0,0,1.43,1.86c.13.12.3,0,.23-.18A10.61,10.61,0,0,0,317.23,122.12Z"/><path d="M305,106.86c-1.54,3.2-4.18,6-5.19,9.45,0,.14.18.24.24.1,1.49-3.29,3.78-6.14,5.14-9.47C305.26,106.83,305.07,106.75,305,106.86Z"/><path d="M326.83,153.07c0-.35,0-.69-.05-1a.34.34,0,0,0-.67,0c0,.34,0,.68-.05,1a1.08,1.08,0,0,0,.16.86.31.31,0,0,0,.45,0A1.12,1.12,0,0,0,326.83,153.07Z"/><path d="M327.19,159.18a.3.3,0,0,0-.59.08c.08,1.57-.13,3.68.64,5.11a.23.23,0,0,0,.41-.06C328.1,162.77,327.44,160.73,327.19,159.18Z"/><path d="M333.35,175.11c-.37-.42-.94-.61-1.32-1.07a3.63,3.63,0,0,1-.79-1.58c-.07-.37-.66-.28-.66.09a3.26,3.26,0,0,0,.67,2.1c.39.5,1.13,1.21,1.83,1.13A.4.4,0,0,0,333.35,175.11Z"/><path d="M343.39,184a17.09,17.09,0,0,0-4.07-3.34c-.24-.18-.51.2-.31.4.64.63,1.27,1.27,1.94,1.87a10.38,10.38,0,0,0,2,1.53C343.2,184.59,343.61,184.29,343.39,184Z"/><path d="M355.41,190.07a19.59,19.59,0,0,0-5.57-1.83.35.35,0,0,0-.19.68,19.9,19.9,0,0,0,5.62,1.68C355.56,190.62,355.64,190.2,355.41,190.07Z"/><path d="M361.09,191.69c-.35-.36-.95-.13-1.38-.08a.35.35,0,0,0,0,.7c.44.05,1,.28,1.38-.08A.38.38,0,0,0,361.09,191.69Z"/><path d="M345.64,87.51c-1.27,1.2-2,3-2.88,4.46-.21.34.3.62.52.31,1-1.42,2.33-2.79,2.92-4.44C346.32,87.51,345.87,87.3,345.64,87.51Z"/><path d="M353.33,79.69A23.33,23.33,0,0,0,350,83.55c-.29.36.19.88.52.52a22.76,22.76,0,0,0,3.39-3.95C354.11,79.74,353.63,79.44,353.33,79.69Z"/><path d="M360.26,74.06c-.59,0-1,.59-1.46,1s-1,.92-1.54,1.39c-.28.24.09.73.4.51.56-.4,1.13-.78,1.69-1.2s1.12-.64,1.26-1.2A.36.36,0,0,0,360.26,74.06Z"/><path d="M420.43,226.72a5.7,5.7,0,0,0-1.3-1.43c-.5-.48-1-.92-1.54-1.4a.32.32,0,0,0-.44.45c.48.5.92,1,1.39,1.53a6.11,6.11,0,0,0,1.43,1.31A.34.34,0,0,0,420.43,226.72Z"/><path d="M423.69,235.54a.37.37,0,0,0-.52.52c1.28,1.4,1.42,2.91,1.64,4.69a.32.32,0,0,0,.62.08C426.17,239,425.05,236.77,423.69,235.54Z"/><path d="M426.73,251.52a11.83,11.83,0,0,1-.16-2.45A.32.32,0,0,0,426,249c-.27,1.38-.49,3.62.65,4.72a.3.3,0,0,0,.5-.21A9.09,9.09,0,0,0,426.73,251.52Z"/><path d="M425.78,260a26.76,26.76,0,0,0-1.17,6.18.35.35,0,0,0,.68.09,26.81,26.81,0,0,0,1.11-6.18C426.45,259.77,425.86,259.7,425.78,260Z"/><path d="M419.83,274.94c-.3.59-.62,1.17-.92,1.77a6.49,6.49,0,0,0-.72,1.67c-.05.31.31.59.56.33a6.13,6.13,0,0,0,.91-1.57c.3-.59.57-1.2.86-1.8C420.74,274.89,420.07,274.49,419.83,274.94Z"/><path d="M415,283.8c-.92.93-1.9,1.8-2.75,2.79-.35.39.19,1,.57.58,1-.9,1.78-1.93,2.66-2.88C415.74,284,415.27,283.48,415,283.8Z"/><path d="M407.09,290.9a19.22,19.22,0,0,1-3.76,3.33.44.44,0,0,0,.44.75,12.65,12.65,0,0,0,3.94-3.59C408,291,407.37,290.55,407.09,290.9Z"/><path d="M396.67,298.63a8.15,8.15,0,0,1-2,1.07,17.57,17.57,0,0,0-1.87.58c-.39.18-.14.67.19.71,1.38.17,3-.87,4.11-1.65C397.49,299,397.1,298.33,396.67,298.63Z"/><path class="cls-40" d="M144.19,419.52a25.17,25.17,0,0,1,3.2,5.29,45.28,45.28,0,0,1,2.26,6.23,58.86,58.86,0,0,1,1.5,6.82q.56,3.51.9,7.06.28,3,.52,6.33t.32,6.79c0,2.29,0,4.58-.14,6.85a40.83,40.83,0,0,1-.91,6.47,5.07,5.07,0,0,1-1.81,2.92,5.88,5.88,0,0,1-2.89,1.33,3.73,3.73,0,0,1-2.74-.66,3.92,3.92,0,0,1-1.4-3.17q-.27-4-.2-8.35t-.21-10.16c-2.65-.14-5.23-.24-7.76-.31s-5.09-.06-7.69,0c-.42,1.39-.79,2.92-1.12,4.59s-.66,3.22-1,4.63a17.68,17.68,0,0,1-1.19,3.48c-.44.9-1,1.29-1.56,1.15q-1.18-.13-.7-7,.21-3.06.84-6.75h-.77a1,1,0,0,1-.94-.42,2.2,2.2,0,0,1-.45-1.18,1.58,1.58,0,0,1,.31-1.18,1.15,1.15,0,0,1,.94-.49,3.26,3.26,0,0,1,.7-.07h.69c.23-1.11.44-2.21.63-3.31s.39-2.16.63-3.23q.48-2.43,1.32-6c.55-2.36,1.23-4.73,2-7.09a46.08,46.08,0,0,1,2.78-6.68,13.77,13.77,0,0,1,3.69-4.74,8.56,8.56,0,0,1,2.57-1.35,8.33,8.33,0,0,1,2.75-.42,6,6,0,0,1,2.61.66A7.18,7.18,0,0,1,144.19,419.52ZM128,449.65q3.61,0,7.17,0t7.24.24a138.76,138.76,0,0,0-1.22-15,30.43,30.43,0,0,0-2.09-8.14c-.81-1.64-1.69-2.28-2.64-1.91s-1.93,1.58-2.92,3.62a47.17,47.17,0,0,0-2.93,8.49C129.7,440.6,128.83,444.83,128,449.65Z"/><path class="cls-40" d="M172.37,433.65a6.87,6.87,0,0,1,4.7.76,9.36,9.36,0,0,1,3.23,3.24,13.26,13.26,0,0,1,1.71,4.59,16.22,16.22,0,0,1,.17,4.84,28.39,28.39,0,0,1-1.88,6.47,19.64,19.64,0,0,1-3.62,5.77,12.19,12.19,0,0,1-5.29,3.45,10.14,10.14,0,0,1-6.88-.45q-.15,3.06,0,6.33c0,1.62,0,3.19.1,4.69s.16,2.89.28,4.15.21,2.3.28,3.16.1,1.45.1,1.78a7.06,7.06,0,0,1-.28,2.22,1.32,1.32,0,0,1-.8,1,1.3,1.3,0,0,1-1.18-.49,7.26,7.26,0,0,1-1.36-2.16c-.42-1-.84-2.13-1.29-3.48s-.86-2.79-1.28-4.35-.81-3.15-1.19-4.8-.69-3.28-1-4.9a61.85,61.85,0,0,1-1-7.07q-.28-3.51-.28-6.64c0-.88.06-2.18.17-3.9a29.83,29.83,0,0,1,.8-5.11,12.32,12.32,0,0,1,1.92-4.32,3.57,3.57,0,0,1,3.58-1.49,2.61,2.61,0,0,1,1.74.87,5.38,5.38,0,0,1,1,1.63A21.16,21.16,0,0,1,168,435.7,7.72,7.72,0,0,1,172.37,433.65Zm4.66,10a13.37,13.37,0,0,0-.07-2.33,7.06,7.06,0,0,0-.66-2.37,3.83,3.83,0,0,0-1.46-1.64,2.82,2.82,0,0,0-2.4-.06,8.77,8.77,0,0,0-4.39,3.34,15.6,15.6,0,0,0-2.12,5,33.66,33.66,0,0,0-.83,5.85c-.12,2-.29,3.9-.53,5.67a10.33,10.33,0,0,0,4.74-1.26,13.58,13.58,0,0,0,3.79-3.06,15.67,15.67,0,0,0,2.64-4.28A17.5,17.5,0,0,0,177,443.6Z"/><path class="cls-40" d="M210.92,431.63a12.22,12.22,0,0,1,.94,3.3,14.06,14.06,0,0,1,0,3.55,14.72,14.72,0,0,1-.83,3.45,11.32,11.32,0,0,1-1.74,3.06A6.48,6.48,0,0,1,207,446.8a3.4,3.4,0,0,1-3-.14,3.45,3.45,0,0,1-1.84-2.3,7.62,7.62,0,0,1-.18-3c.23-1.44.4-2.81.49-4.11a9.58,9.58,0,0,0-.18-3.09c-.2-.77-.59-1.15-1.14-1.15s-1.37.56-2.44,1.67a13.86,13.86,0,0,0-2.92,4.84,22.86,22.86,0,0,0-1.18,5.35,29.59,29.59,0,0,0,0,5.57q.24,2.82.56,5.53c.21,1.81.4,3.54.59,5.19a21.32,21.32,0,0,1,.07,4.49,5.22,5.22,0,0,1-1.5,3.54,4.2,4.2,0,0,1-2.92,1.19,5.13,5.13,0,0,1-3.17-1.19,6.29,6.29,0,0,1-2.15-3.54,15.46,15.46,0,0,1-.56-3.83c0-1.44-.07-2.95-.07-4.52q.27-6.54.7-13.19A78.9,78.9,0,0,1,188,430.93c.51-1.67,1.18-2.49,2-2.47s1.33,1,1.56,2.89c.14.65.26,1.37.35,2.16s.19,1.64.28,2.57q1.4-1.87,2.89-3.62a20.83,20.83,0,0,1,3.13-3,14,14,0,0,1,3.3-1.91,7,7,0,0,1,3.41-.46,8.39,8.39,0,0,1,3.41,1.54A8.79,8.79,0,0,1,210.92,431.63Z"/><path class="cls-40" d="M233.26,451a2.7,2.7,0,0,1,2.05.21,2.52,2.52,0,0,1,1,1.43,5.12,5.12,0,0,1,.14,2.05,7,7,0,0,1-.56,2,12.59,12.59,0,0,1-3.13,3.83,10.59,10.59,0,0,1-4.59,2.15,8.94,8.94,0,0,1-4.88-.21,11.24,11.24,0,0,1-4.07-2.36,12.61,12.61,0,0,1-2.88-3.9,14.52,14.52,0,0,1-1.4-4.73,26.92,26.92,0,0,1,.39-5.88,16.78,16.78,0,0,1,2-5.67,16.52,16.52,0,0,1,4.17-4.59,11.33,11.33,0,0,1,5.64-2.3,9.13,9.13,0,0,1,3.58.45,6.38,6.38,0,0,1,3,2.19,7.94,7.94,0,0,1,1.6,4.25,7.2,7.2,0,0,1-.62,3.58,9.85,9.85,0,0,1-2.13,3,11.35,11.35,0,0,1-3.16,2.16,12.16,12.16,0,0,1-3.69,1,5.16,5.16,0,0,1-1.25.11c-.38,0-.7-.06-1-.11a4.41,4.41,0,0,0,.87,2.65,3.87,3.87,0,0,0,2,1.28,4.44,4.44,0,0,0,2.47-.07,6,6,0,0,0,2.44-1.42A4.44,4.44,0,0,1,233.26,451Zm-8.36-8.21a9.38,9.38,0,0,0-.69,1.43,15.27,15.27,0,0,0-.49,1.49.9.9,0,0,1,0,.25.61.61,0,0,0,0,.24,10.14,10.14,0,0,0,2.65-.83,6.8,6.8,0,0,0,2.57-2.09,3.21,3.21,0,0,0,.77-2.58,1.23,1.23,0,0,0-1-1,1.25,1.25,0,0,0-.55.14.41.41,0,0,1-.21.1.58.58,0,0,0-.28.18,1.83,1.83,0,0,0-.63.42,5,5,0,0,0-1.11,1A11,11,0,0,0,224.9,442.76Z"/><path class="cls-40" d="M259.42,427.45a5.3,5.3,0,0,1,4.14,1.85,13.54,13.54,0,0,1,2.61,4.73,28.75,28.75,0,0,1,1.32,6.44q.35,3.54.35,6.92a52,52,0,0,1-.35,6.23,23.78,23.78,0,0,1-.83,4.31,7.82,7.82,0,0,1-2.47,4.11,3.27,3.27,0,0,1-2.93.59,4.75,4.75,0,0,1-2.5-2.16,9.31,9.31,0,0,1-1.29-4.28c-.05-1.16,0-2.41,0-3.76s.17-2.69.31-4,.29-2.67.45-4,.29-2.5.38-3.62a19,19,0,0,0,0-4.21,3.56,3.56,0,0,0-.73-1.94.82.82,0,0,0-1.15,0,5.32,5.32,0,0,0-1.36,1.56,35.34,35.34,0,0,0-2.33,4.73q-1.08,2.66-2,5.5t-1.56,5.71c-.47,1.9-.88,3.68-1.25,5.35-.14.42-.32.87-.53,1.36a5.17,5.17,0,0,1-.83,1.36,4.13,4.13,0,0,1-1.36,1,4.44,4.44,0,0,1-2,.42,3.12,3.12,0,0,1-2-.59,4,4,0,0,1-1.18-1.5,7.57,7.57,0,0,1-.59-2,13.42,13.42,0,0,1-.17-2.15v-2.3a23.78,23.78,0,0,1,.14-2.57c.09-.75.18-2.1.27-4.08s.19-4,.28-6.22c.05-1.07.09-2.13.14-3.17s.08-2,.11-2.82,0-1.54.07-2.12a8.17,8.17,0,0,1,.1-1.22c.18-1.3.65-2,1.39-2.15s1.44.48,2.09,1.87c.37.93.75,2,1.15,3.1s.75,2.31,1.08,3.51.6,2.42.83,3.62.39,2.3.49,3.27c.37-1.2.84-2.74,1.43-4.62a34.58,34.58,0,0,1,2.22-5.5,18,18,0,0,1,3.31-4.63A6.35,6.35,0,0,1,259.42,427.45Z"/><path class="cls-40" d="M288.62,423.7a5.86,5.86,0,0,1,2.55-3.34,4,4,0,0,1,5.62,1.28,4.39,4.39,0,0,1,.48,3.59,193.67,193.67,0,0,0-3.34,20.59q-1.11,10.44-1.18,21.71a2.06,2.06,0,0,1-.55,1.57,1.72,1.72,0,0,1-1.21.52,2.14,2.14,0,0,1-1.27-.45,1.87,1.87,0,0,1-.76-1.29q-.21-.83-.45-2.4c-.16-1-.32-2.17-.48-3.37s-.31-2.41-.45-3.62-.28-2.27-.41-3.2c-.32.83-.69,1.81-1.11,2.92a26,26,0,0,1-1.45,3.24,10.91,10.91,0,0,1-2,2.67,4.63,4.63,0,0,1-2.61,1.33,5.52,5.52,0,0,1-3.83-.63,8.35,8.35,0,0,1-2.71-2.71,14.25,14.25,0,0,1-1.74-4,31.45,31.45,0,0,1-.91-4.56,37.4,37.4,0,0,1-.28-4.35,22.25,22.25,0,0,1,.21-3.38,20.13,20.13,0,0,1,1.43-6.16,12.18,12.18,0,0,1,3.23-4.76,6.45,6.45,0,0,1,4.7-1.6q2.69.13,5.88,3.41c.09-1.12.23-2.27.41-3.48s.39-2.4.62-3.59.49-2.28.76-3.3S288.34,424.44,288.62,423.7Zm-9.79,35.14c.33,1.43.73,2.15,1.22,2.15s1-.45,1.46-1.35a21.79,21.79,0,0,0,1.46-3.59c.49-1.48.92-3,1.29-4.49s.67-2.88.91-4.14a17.13,17.13,0,0,0,.34-2.5c0-3.06-.48-5.1-1.46-6.13a2,2,0,0,0-3.13-.13,7.93,7.93,0,0,0-2.12,3.86,27.86,27.86,0,0,0-.94,5.6,35.41,35.41,0,0,0,.07,5.92A22.48,22.48,0,0,0,278.83,458.84Z"/><path class="cls-40" d="M317.18,451a2.7,2.7,0,0,1,2.05.21,2.52,2.52,0,0,1,1,1.43,5.12,5.12,0,0,1,.14,2.05,7,7,0,0,1-.56,2,12.59,12.59,0,0,1-3.13,3.83,10.59,10.59,0,0,1-4.59,2.15,8.94,8.94,0,0,1-4.88-.21,11.24,11.24,0,0,1-4.07-2.36,12.61,12.61,0,0,1-2.88-3.9,14.52,14.52,0,0,1-1.4-4.73,26.92,26.92,0,0,1,.39-5.88,16.78,16.78,0,0,1,2.05-5.67,16.52,16.52,0,0,1,4.17-4.59,11.33,11.33,0,0,1,5.64-2.3,9.13,9.13,0,0,1,3.58.45,6.38,6.38,0,0,1,3,2.19,7.94,7.94,0,0,1,1.6,4.25,7.2,7.2,0,0,1-.62,3.58,9.85,9.85,0,0,1-2.13,3,11.35,11.35,0,0,1-3.16,2.16,12.16,12.16,0,0,1-3.69,1,5.16,5.16,0,0,1-1.25.11c-.38,0-.7-.06-1-.11a4.41,4.41,0,0,0,.87,2.65,3.87,3.87,0,0,0,1.95,1.28,4.44,4.44,0,0,0,2.47-.07,6,6,0,0,0,2.44-1.42A4.44,4.44,0,0,1,317.18,451Zm-8.36-8.21a9.38,9.38,0,0,0-.69,1.43,15.27,15.27,0,0,0-.49,1.49.9.9,0,0,1,0,.25.61.61,0,0,0,0,.24,10.14,10.14,0,0,0,2.65-.83,6.8,6.8,0,0,0,2.57-2.09,3.21,3.21,0,0,0,.77-2.58,1.23,1.23,0,0,0-1.05-1,1.25,1.25,0,0,0-.55.14.41.41,0,0,1-.21.1.58.58,0,0,0-.28.18,1.83,1.83,0,0,0-.63.42,5,5,0,0,0-1.11,1A11,11,0,0,0,308.82,442.76Z"/><path class="cls-40" d="M330.81,458.42a10.78,10.78,0,0,1,1,1.7,14.42,14.42,0,0,1,.9,2.4,9.11,9.11,0,0,1,.35,2.4,2.4,2.4,0,0,1-.63,1.78,5,5,0,0,1-1.77.87,9.8,9.8,0,0,1-2.26.38,9.22,9.22,0,0,1-2.3-.14,5.41,5.41,0,0,1-1.88-.69,1,1,0,0,1-.48-.35c-.1-.09-.14-.16-.14-.21a2.58,2.58,0,0,1-.07-1.36,7.62,7.62,0,0,1,.45-1.49,15.17,15.17,0,0,1,.73-1.53c.28-.51.53-1,.77-1.47a11.76,11.76,0,0,1,1-1.73,5,5,0,0,1,1.25-1.33,2,2,0,0,1,1.46-.38A3,3,0,0,1,330.81,458.42Zm2.09-40.78a3.91,3.91,0,0,1,2.26,1.71,5.33,5.33,0,0,1,.73,2.81,32.59,32.59,0,0,1-.66,4.42c-.3,1.33-.61,2.66-.94,4s-.67,2.81-1,4.39-.7,3.43-1,5.57c-.23,1.11-.41,2.21-.55,3.3s-.28,2.07-.42,2.92-.25,1.6-.35,2.23a4.54,4.54,0,0,1-.28,1.22c-.32,1.39-.87,2.12-1.63,2.19s-1.4-.66-1.91-2.19a25.73,25.73,0,0,1-.67-2.61c-.2-1-.39-2.07-.55-3.2s-.32-2.31-.45-3.52-.24-2.39-.28-3.55c-.1-1.76-.12-3.49-.07-5.18a46.42,46.42,0,0,1,.35-4.77,22.5,22.5,0,0,1,.59-3.16,15.61,15.61,0,0,1,1.28-3.45,7.26,7.26,0,0,1,2.2-2.57A4.1,4.1,0,0,1,332.9,417.64Z"/></g></g></svg>